<svg width="142" height="142" viewBox="0 0 142 142" fill="none" xmlns="http://www.w3.org/2000/svg">
<path d="M83.3245 42.5371L104.409 21.5488L121.309 38.5254L99.9642 59.7715L129.551 59.4609L129.803 83.4141L98.8968 83.7383L120.805 105.25L104.022 122.343L70.3353 89.2656L70.1917 89.4102L60.7542 79.9297L60.7464 79.9385L60.2054 79.3779L57.596 76.7568L55.3577 74.5586L55.3821 74.5322L53.2923 72.4326L53.4007 72.3232L21.5696 39.3262L38.8099 22.6953L59.3802 44.0195L59.1487 12.1738L83.1028 12L83.3245 42.5371Z" fill="#1447E6"/>
<path d="M13 60.1218H82.8755V83.8531H13V60.1218Z" fill="#E22E2E"/>
<path d="M21.5696 104.972L66.9808 61.7979L83.3325 78.9967L37.9213 122.171L21.5696 104.972Z" fill="#E22E2E"/>
<path d="M59.1442 130.657V60.1219L82.8755 60.1218L82.8755 130.657H59.1442Z" fill="#E22E2E"/>
</svg>
