<svg width="96" height="96" viewBox="0 0 96 96" fill="none" xmlns="http://www.w3.org/2000/svg">
<path d="M24.94 57.6891C18.2844 57.6891 12.8887 63.2212 12.8887 70.0454V71.6459C12.8887 78.4701 18.2841 84.0018 24.9398 84.0018C31.5954 84.0018 36.9911 78.4701 36.9911 71.6459V70.0454C36.9911 63.2212 31.5957 57.6891 24.94 57.6891Z" fill="white"/>
<path fill-rule="evenodd" clip-rule="evenodd" d="M35.6396 54.8692C37.5297 54.8692 41.2894 54.7626 46.4864 52.5691C52.5423 50.0124 64.5915 45.3716 73.283 40.6047C79.3619 37.2707 82.0263 32.8611 82.0263 26.9228C82.0267 18.6812 75.5103 12 67.4722 12H33.794C22.2483 12 12.8887 21.5966 12.8887 33.4346C12.8887 45.2726 21.652 54.8692 35.6396 54.8692Z" fill="white"/>
<path fill-rule="evenodd" clip-rule="evenodd" d="M41.3369 69.6388C41.3369 63.836 44.7441 58.6041 49.9714 56.3797L60.5773 51.8667C71.3053 47.3015 83.1133 55.385 83.1133 67.2942C83.1133 76.5213 75.8169 84.0003 66.8176 83.9978L55.3347 83.9946C47.6033 83.9928 41.3369 77.566 41.3369 69.6388Z" fill="white"/>
</svg>
