<svg width="96" height="96" viewBox="0 0 96 96" fill="none" xmlns="http://www.w3.org/2000/svg">
<path d="M92.8171 20.3656C91.8791 19.897 91.4753 20.79 90.927 21.2432C90.7392 21.3895 90.5802 21.5794 90.4219 21.7548C89.0509 23.2472 87.4489 24.2276 85.3561 24.1105C82.297 23.9351 79.6843 24.9153 77.3754 27.2999C76.8847 24.3593 75.2541 22.6028 72.7719 21.4769C71.4731 20.8917 70.1599 20.3061 69.2505 19.0333C68.6156 18.1265 68.4423 17.1167 68.1249 16.1218C67.923 15.5223 67.7204 14.9075 67.0422 14.8047C66.3062 14.6877 66.0171 15.3166 65.729 15.8439C64.5743 17.9948 64.127 20.3649 64.1706 22.7641C64.2719 28.1634 66.5086 32.4643 70.9538 35.5228C71.4588 35.874 71.5884 36.225 71.4302 36.7371C71.127 37.7908 70.7662 38.8147 70.4488 39.8684C70.2467 40.5415 69.943 40.6877 69.2362 40.3952C66.7974 39.3568 64.6899 37.8199 62.8281 35.9622C59.6675 32.8454 56.8102 29.4071 53.2454 26.7147C52.4204 26.0929 51.5731 25.5024 50.7053 24.9444C47.0685 21.3453 51.1817 18.3893 52.1341 18.0386C53.1298 17.6725 52.4806 16.4145 49.2618 16.4291C46.0435 16.4436 43.0993 17.5409 39.3473 19.0041C38.7987 19.2239 38.2217 19.3848 37.6297 19.5159C34.2238 18.8574 30.6881 18.7112 26.9933 19.1353C20.0369 19.925 14.4811 23.2759 10.397 28.9968C5.49036 35.8747 4.33545 43.6874 5.7499 51.8371C7.23632 60.4254 11.5369 67.5365 18.1468 73.0966C25.0019 78.8605 32.8964 81.6848 41.9014 81.1434C47.371 80.8218 53.4616 80.0758 60.331 74.1496C62.0629 75.0272 63.8811 75.3787 66.8975 75.642C69.2212 75.8618 71.4581 75.5249 73.19 75.1596C75.9033 74.5744 75.7157 72.0137 74.7341 71.5459C66.7826 67.7713 68.5281 69.3075 66.9409 68.0638C70.4573 63.8241 75.526 59.4401 78.3515 47.5644C79.029 44.7168 79.4534 41.5352 79.4534 38.5525C79.4534 37.9551 79.583 37.6603 80.3049 37.587C82.2963 37.3526 84.2301 36.7973 86.0053 35.8019C91.1574 32.9341 93.2358 28.2229 93.7265 22.5753C93.7985 21.7123 93.7122 20.8189 92.8171 20.3656ZM47.92 71.1937C40.2131 65.0199 36.4755 62.9856 34.9314 63.0735C33.4884 63.1615 33.7479 64.8441 34.0654 65.9413C34.3971 67.0242 34.8306 67.7701 35.4364 68.7211C35.8549 69.3505 36.1438 70.2864 35.0182 70.9894C32.536 72.5544 28.2207 70.4625 28.0184 70.3598C22.9962 67.3458 18.7964 63.3662 15.8377 57.9237C12.9804 52.6851 11.3205 47.0674 11.0466 41.0683C10.9744 39.6201 11.3932 39.1074 12.8071 38.8445C14.6687 38.493 16.5881 38.4197 18.4499 38.6976C26.3151 39.8684 33.0113 43.453 38.6254 49.1297C41.8295 52.3628 44.2539 56.226 46.7511 60.0005C49.4065 64.0095 52.264 67.8284 55.9008 70.9595C57.1853 72.0567 58.2097 72.8909 59.1913 73.5057C56.2325 73.8418 51.2966 73.9152 47.92 71.1937ZM51.6476 46.6978C51.7697 46.1934 52.2152 45.8237 52.7547 45.8237C52.8877 45.8241 53.0196 45.8487 53.1441 45.8966C53.3031 45.9554 53.4472 46.0433 53.5628 46.1745C53.7647 46.3797 53.8803 46.6722 53.8803 46.9792C53.8803 47.6232 53.3753 48.135 52.7404 48.135C52.4724 48.1375 52.2125 48.0414 52.0084 47.8644C51.8044 47.6873 51.6698 47.4411 51.6295 47.1711C51.6046 47.0137 51.6107 46.8527 51.6476 46.6978ZM62.7156 53.1288C62.1046 53.3668 61.4964 53.5537 60.9087 53.578C59.8117 53.6363 58.6141 53.1828 57.9649 52.6268C56.9549 51.7638 56.2332 51.2814 55.9301 49.7736C55.8002 49.1297 55.8722 48.135 55.9878 47.5644C56.2475 46.3353 55.9587 45.5451 55.1076 44.8283C54.4151 44.2431 53.5342 44.0823 52.5676 44.0823C52.2068 44.0823 51.875 43.9215 51.6295 43.7899C51.2253 43.5853 50.8936 43.073 51.211 42.4437C51.3123 42.2391 51.803 41.7414 51.9186 41.654C53.2315 40.8929 54.7473 41.1417 56.1467 41.7123C57.4456 42.2537 58.4272 43.2484 59.8414 44.6529C61.2845 46.3499 61.5443 46.8184 62.3672 48.0913C63.0169 49.086 63.6084 50.1105 64.0126 51.2806C64.2182 51.8926 64.0292 52.4132 63.4637 52.7805C63.2337 52.9298 62.9693 53.0299 62.7156 53.1288Z" fill="white"/>
</svg>
