<svg width="96" height="96" viewBox="0 0 96 96" fill="none" xmlns="http://www.w3.org/2000/svg">
<path d="M83.915 43.8701L63.7393 64.2686L92.498 64.1084L95.25 70.6006L63.75 70.6787L63.7393 70.668H63.7451C61.1326 70.668 58.7884 69.1213 57.7744 66.7314C56.7554 64.3206 57.2832 61.5678 59.125 59.7002L81.1631 37.3779L83.915 43.8701ZM36.8799 59.6855C38.7214 61.5479 39.2548 64.3102 38.2305 66.7158C37.2166 69.1109 34.8626 70.6522 32.2607 70.6523L0.760742 70.5801L0.75 70.5898L3.50195 64.0977L32.2607 64.2578L12.0898 43.8545L14.8418 37.3623L36.8799 59.6855ZM47.9971 50.4307L59.0264 24H66.1094L53.9365 52.9033C52.9277 55.3036 50.5788 56.8603 47.9561 56.8604C45.3332 56.8604 42.9792 55.3034 41.9756 52.8926L29.875 24H36.958L47.9971 50.4307Z" fill="white"/>
</svg>
