<svg width="96" height="96" viewBox="0 0 96 96" fill="none" xmlns="http://www.w3.org/2000/svg">
<path d="M24.2158 23.5718C34.6281 13.1759 49.9637 10.5551 62.7725 15.8218C65.6061 16.8735 68.0761 18.3698 70.0029 19.7612L59.3066 24.6968C49.3479 20.5223 37.9396 23.3613 30.9766 30.3188C21.7073 39.5725 19.7188 55.5138 30.1855 66.0571L30.6855 66.563L0.557617 93.4546C2.46842 90.8253 4.84084 88.3414 7.20508 85.8579C13.8767 78.8517 20.4992 71.9105 16.459 62.0972C11.0505 48.9669 14.2004 33.5792 24.2158 23.5718ZM94.7383 3.52393C84.82 17.1719 79.978 23.8467 83.8643 40.5444L83.8398 40.521C86.5198 51.8873 83.6538 64.4917 74.3994 73.7388C62.7321 85.4047 44.0611 88.0013 28.6855 77.5005L39.4053 72.5415C49.2183 76.3924 59.9549 74.7014 67.6709 66.9917C75.3871 59.2818 77.1194 48.0525 73.2412 38.7085C72.5042 36.9368 70.2946 36.492 68.748 37.6323L37.1953 60.9077L82.3906 15.5464V15.5864L95.4424 2.54541C95.2076 2.87699 94.9728 3.20043 94.7383 3.52393Z" fill="white"/>
</svg>
