<svg width="96" height="96" viewBox="0 0 96 96" fill="none" xmlns="http://www.w3.org/2000/svg">
<path fill-rule="evenodd" clip-rule="evenodd" d="M47.7436 15.2842C64.4792 15.2842 78.4699 29.2749 78.4699 46.0105C78.4699 49.277 77.9369 52.4389 76.9546 55.4127C77.7728 56.7421 78.5032 58.1275 79.1371 59.5597C80.9796 55.386 82.0068 50.799 82.0068 46.0105C82.0068 27.5578 66.3775 11.7473 47.7436 11.7473C29.2909 11.7473 13.4805 27.3764 13.4805 46.0105C13.4805 50.7957 14.5062 55.3797 16.3463 59.551C16.9807 58.1178 17.7117 56.7329 18.5301 55.4048C17.5494 52.4334 17.0173 49.2741 17.0173 46.0105C17.0173 29.2749 31.008 15.2842 47.7436 15.2842ZM43.5291 76.4385C42.5112 77.5016 41.3483 78.544 40.0852 79.3825C42.5542 79.965 45.1186 80.2736 47.7436 80.2736C50.3825 80.2736 52.9602 79.9617 55.4412 79.3733C54.1828 78.5249 53.0232 77.4863 52.0063 76.4317C50.6107 76.6327 49.1874 76.7368 47.7436 76.7368C46.3165 76.7368 44.9093 76.635 43.5291 76.4385Z" fill="white"/>
<path opacity="0.5" d="M47.5225 58.8669C56.2143 58.8669 59.0173 51.1212 59.0173 47.1423C59.0173 45.0732 57.629 45.7275 55.4008 46.824C53.3406 47.8408 50.573 49.2467 47.5314 49.2467C41.1739 49.2467 36.0366 43.1633 36.0366 47.1423C36.0366 51.1212 38.8307 58.8669 47.5314 58.8669H47.5225Z" fill="white"/>
<path fill-rule="evenodd" clip-rule="evenodd" d="M40.8645 56.842C41.331 55.8939 41.9879 55.0521 42.7942 54.369C43.6005 53.6859 44.5389 53.1763 45.5508 52.8719C45.9045 52.7658 46.267 53.3759 46.6472 54.0037C47.0009 54.605 47.3723 55.2151 47.7436 55.2151C48.1415 55.2151 48.5394 54.6138 48.9196 54.0214C49.3175 53.4025 49.7066 52.8012 50.0868 52.9161C51.9863 53.5192 53.5736 54.843 54.5078 56.6033C57.8059 54.0037 59.0173 49.7595 59.0173 47.1423C59.0173 45.0732 57.6291 45.7275 55.4009 46.8239L55.2771 46.8858C53.2346 47.9027 50.5112 49.2467 47.5226 49.2467C44.5339 49.2467 41.8194 47.9027 39.768 46.8858C37.4691 45.7452 36.0278 45.029 36.0278 47.1423C36.0278 49.8391 37.3188 54.269 40.8645 56.842Z" fill="white"/>
<path d="M57.7264 37.6547C58.8582 38.0437 59.3003 40.3604 60.4409 39.7591C61.2133 39.3491 61.8467 38.7192 62.261 37.9491C62.6754 37.179 62.8521 36.3034 62.7687 35.4329C62.6853 34.5624 62.3457 33.7362 61.7928 33.0587C61.2398 32.3813 60.4984 31.883 59.6622 31.627C58.8261 31.3709 57.9328 31.3686 57.0953 31.6203C56.2579 31.872 55.5138 32.3664 54.9574 33.0409C54.4009 33.7155 54.057 34.5399 53.9691 35.41C53.8812 36.28 54.0533 37.1566 54.4637 37.9288C55.003 38.9456 56.7184 37.2922 57.7352 37.6459L57.7264 37.6547ZM36.9032 37.6547C35.7715 38.0437 35.3205 40.3604 34.1887 39.7591C33.4164 39.3491 32.783 38.7192 32.3686 37.9491C31.9543 37.179 31.7776 36.3034 31.861 35.4329C31.9443 34.5624 32.2839 33.7362 32.8369 33.0587C33.3898 32.3813 34.1313 31.883 34.9674 31.627C35.8036 31.3709 36.6969 31.3686 37.5343 31.6203C38.3718 31.872 39.1158 32.3664 39.6723 33.0409C40.2287 33.7155 40.5727 34.5399 40.6605 35.41C40.7484 36.28 40.5763 37.1566 40.166 37.9288C39.6266 38.9456 37.9024 37.2922 36.8944 37.6459L36.9032 37.6547Z" fill="white"/>
<path d="M68.5224 41.8105C69.2845 41.8105 70.0155 41.5077 70.5544 40.9688C71.0933 40.4299 71.3961 39.6989 71.3961 38.9368C71.3961 38.1746 71.0933 37.4437 70.5544 36.9048C70.0155 36.3659 69.2845 36.0631 68.5224 36.0631C67.7603 36.0631 67.0293 36.3659 66.4904 36.9048C65.9515 37.4437 65.6487 38.1746 65.6487 38.9368C65.6487 39.6989 65.9515 40.4299 66.4904 40.9688C67.0293 41.5077 67.7603 41.8105 68.5224 41.8105ZM27.4066 41.8105C28.1688 41.8105 28.8997 41.5077 29.4386 40.9688C29.9775 40.4299 30.2803 39.6989 30.2803 38.9368C30.2803 38.1746 29.9775 37.4437 29.4386 36.9048C28.8997 36.3659 28.1688 36.0631 27.4066 36.0631C26.6445 36.0631 25.9135 36.3659 25.3746 36.9048C24.8357 37.4437 24.5329 38.1746 24.5329 38.9368C24.5329 39.6989 24.8357 40.4299 25.3746 40.9688C25.9135 41.5077 26.6445 41.8105 27.4066 41.8105ZM21.4912 51.5368C20.0588 51.5368 18.7856 52.1204 17.8925 53.1903C17.131 54.1309 16.7158 55.3046 16.7165 56.5149C16.1598 56.3475 15.5825 56.2582 15.0011 56.2496C13.6306 56.2496 12.3927 56.7713 11.5173 57.7174C10.7364 58.5284 10.244 59.5739 10.1162 60.6924C9.98831 61.811 10.2321 62.9406 10.81 63.9069C10.0274 64.5457 9.47228 65.4203 9.22724 66.4004C9.01503 67.1962 8.80282 68.8762 9.93461 70.5915C9.51033 71.2438 9.25786 71.9928 9.20066 72.7689C9.14346 73.5449 9.2834 74.3228 9.60745 75.0303C10.5093 77.0816 12.7641 78.6909 17.1409 80.424C19.8555 81.5027 22.3489 82.1924 22.3666 82.2012C25.5165 83.0739 28.7632 83.5492 32.031 83.616C37.2125 83.616 40.9173 82.0244 43.0483 78.8943C46.479 73.8631 45.9927 69.2564 41.5451 64.8176C39.0959 62.3595 37.4601 58.7431 37.1241 57.9473C36.4344 55.5953 34.6129 52.9781 31.5978 52.9781C30.7956 52.9907 30.0081 53.1947 29.3007 53.573C28.5932 53.9514 27.9863 54.4931 27.5304 55.1532C26.6462 54.0391 25.7797 53.1637 25.0016 52.6597C23.9632 51.9568 22.7448 51.567 21.4912 51.5368ZM21.4912 55.0736C21.9422 55.0736 22.4992 55.2682 23.1005 55.6484C24.9927 56.8509 28.6268 63.1023 29.962 65.5338C30.4041 66.3473 31.1733 66.6922 31.8542 66.6922C33.2247 66.6922 34.2858 65.3393 31.9868 63.6151C28.5207 61.0244 29.7321 56.789 31.3856 56.5326C31.4563 56.5149 31.5359 56.5149 31.5978 56.5149C33.1009 56.5149 33.7641 59.1056 33.7641 59.1056C33.7641 59.1056 35.7093 63.9865 39.0517 67.3288C42.3851 70.6623 42.562 73.3414 40.1304 76.9048C38.4681 79.3364 35.2938 80.0703 32.031 80.0703C28.6622 80.0703 25.1961 79.2745 23.2597 78.7793C23.1624 78.7528 11.367 75.4193 12.8613 72.5898C13.1089 72.1124 13.5245 71.9178 14.0462 71.9178C16.1506 71.9178 19.9704 75.0479 21.6239 75.0479C21.9864 75.0479 22.2428 74.8976 22.3578 74.5174C23.0563 71.9974 11.6942 70.9364 12.6491 67.2934C12.826 66.648 13.2769 66.3915 13.9224 66.3915C16.6988 66.3915 22.9413 71.2812 24.25 71.2812C24.3472 71.2812 24.4268 71.2547 24.4622 71.1928C25.1165 70.1317 24.754 69.389 20.1296 66.5949C15.5228 63.8008 12.2778 62.1208 14.1169 60.1136C14.3291 59.8837 14.6298 59.7776 15.0011 59.7776C17.8041 59.7776 24.4268 65.808 24.4268 65.808C24.4268 65.808 26.2129 67.6648 27.3005 67.6648C27.5481 67.6648 27.7603 67.5764 27.9018 67.3288C28.6622 66.0378 20.775 60.0606 20.3329 57.5936C20.0323 55.9136 20.5451 55.0736 21.4912 55.0736Z" fill="white"/>
<path d="M74.4378 51.5367C75.8702 51.5367 77.1523 52.1203 78.0366 53.1902C78.7981 54.1308 79.2133 55.3046 79.2126 56.5148C79.7721 56.3466 80.3525 56.2573 80.9368 56.2496C82.3073 56.2496 83.5452 56.7713 84.4206 57.7174C85.2015 58.5284 85.6939 59.5738 85.8217 60.6924C85.9496 61.811 85.7058 62.9406 85.1279 63.9069C85.9072 64.547 86.4591 65.4215 86.7018 66.4003C86.914 67.1961 87.1262 68.8761 85.9944 70.5915C86.4187 71.2438 86.6712 71.9928 86.7284 72.7688C86.7856 73.5449 86.6457 74.3228 86.3216 75.0302C85.4197 77.0816 83.165 78.6908 78.797 80.4239C76.0736 81.5026 73.5801 82.1923 73.5624 82.2012C70.4126 83.0738 67.1659 83.5491 63.898 83.6159C58.7166 83.6159 55.0117 82.0243 52.8808 78.8942C49.45 73.8631 49.9363 69.2563 54.3839 64.8176C56.842 62.3595 58.4778 58.7431 58.8138 57.9473C59.5035 55.5953 61.3161 52.978 64.3313 52.978C65.1334 52.9907 65.921 53.1947 66.6284 53.573C67.3358 53.9513 67.9427 54.4931 68.3987 55.1532C69.2829 54.0391 70.1494 53.1637 70.9363 52.6597C71.9722 51.9584 73.1873 51.5687 74.4378 51.5367ZM74.4378 55.0736C73.9869 55.0736 73.4387 55.2681 72.8286 55.6483C70.9452 56.8509 67.3022 63.1022 65.9671 65.5338C65.7869 65.8807 65.5155 66.172 65.182 66.3761C64.8486 66.5802 64.4658 66.6895 64.0749 66.6921C62.7132 66.6921 61.6433 65.3393 63.9511 63.6151C67.4083 61.0243 66.197 56.789 64.5435 56.5325C64.4733 56.5211 64.4024 56.5152 64.3313 56.5148C62.8281 56.5148 62.165 59.1056 62.165 59.1056C62.165 59.1056 60.2197 63.9864 56.8862 67.3287C53.5439 70.6622 53.3671 73.3414 55.8075 76.9047C57.461 79.3363 60.6441 80.0702 63.898 80.0702C67.2757 80.0702 70.733 79.2744 72.6782 78.7793C72.7667 78.7527 84.5709 75.4193 83.0765 72.5898C82.8201 72.1123 82.4134 71.9178 81.8917 71.9178C79.7873 71.9178 75.9587 75.0479 74.314 75.0479C73.9427 75.0479 73.6862 74.8976 73.5801 74.5174C72.8728 71.9974 84.2349 70.9363 83.2799 67.2934C83.1119 66.6479 82.661 66.3915 82.0067 66.3915C79.2302 66.3915 72.9877 71.2812 71.6791 71.2812C71.5907 71.2812 71.5111 71.2546 71.4757 71.1927C70.8214 70.1317 71.1751 69.389 75.7907 66.5948C80.4151 63.8007 83.6601 62.1207 81.8033 60.1136C81.5999 59.8837 81.2993 59.7776 80.9368 59.7776C78.125 59.7776 71.5022 65.8079 71.5022 65.8079C71.5022 65.8079 69.7161 67.6647 68.6374 67.6647C68.5158 67.6702 68.3952 67.6416 68.289 67.5823C68.1828 67.5229 68.0952 67.4351 68.0361 67.3287C67.2669 66.0378 75.154 60.0605 75.5961 57.5936C75.8968 55.9136 75.3839 55.0736 74.4378 55.0736Z" fill="white"/>
</svg>
