<svg width="96" height="96" viewBox="0 0 96 96" fill="none" xmlns="http://www.w3.org/2000/svg">
<path d="M30.9905 21H30.9105L30.8071 29.7167H30.8805C36.5971 29.7167 41.0338 34.24 50.6805 50.5367L51.2638 51.5267L51.3038 51.5933L56.7038 43.4667L56.6638 43.4033C55.4838 41.4714 54.2635 39.5643 53.0038 37.6833C51.7636 35.8271 50.4572 34.0159 49.0871 32.2533C42.7105 24.1067 37.3771 21 30.9905 21Z" fill="url(#paint0_linear_10022_741)"/>
<path d="M30.9102 21C24.5002 21.0333 18.8235 25.1933 14.7335 31.5667C14.7224 31.5855 14.7113 31.6044 14.7002 31.6233L22.2135 35.7267L22.2502 35.67C24.6435 32.06 27.6169 29.7567 30.8102 29.72H30.8802L30.9869 21H30.9102Z" fill="url(#paint1_linear_10022_741)"/>
<path d="M14.7303 31.5667L14.6936 31.6233C12.0003 35.8233 9.99364 40.9833 8.91364 46.5466L8.89697 46.62L17.3436 48.62L17.357 48.5466C18.257 43.6566 19.977 39.12 22.2103 35.73L22.247 35.6733L14.7303 31.5667Z" fill="url(#paint2_linear_10022_741)"/>
<path d="M17.3572 48.5466L8.91382 46.5466L8.89715 46.62C8.30715 49.68 8.00715 52.79 8.00049 55.9066V55.9833L16.6605 56.76V56.6833C16.629 53.9559 16.8634 51.2319 17.3605 48.55L17.3572 48.5466Z" fill="url(#paint3_linear_10022_741)"/>
<path d="M16.9237 59.4566C16.7684 58.5611 16.6804 57.6553 16.6604 56.7466V56.6733L8.00041 55.8933V55.9733C7.99069 57.82 8.15362 59.6636 8.48708 61.48L16.9371 59.53C16.9326 59.5055 16.9281 59.4811 16.9237 59.4566Z" fill="url(#paint4_linear_10022_741)"/>
<path d="M18.9003 63.9666C17.9536 62.9333 17.287 61.4466 16.937 59.54L16.9236 59.47L8.47363 61.42L8.48697 61.49C9.12697 64.8566 10.3803 67.6566 12.1736 69.78L12.2203 69.8366L18.947 64.02C18.9302 64.0023 18.9169 63.9845 18.9003 63.9666Z" fill="url(#paint5_linear_10022_741)"/>
<path d="M43.9338 39.8467C38.8405 47.68 35.7538 52.5967 35.7538 52.5967C28.9705 63.2633 26.6238 65.6533 22.8505 65.6533C22.1084 65.6727 21.371 65.5314 20.6886 65.2391C20.0063 64.9468 19.3951 64.5105 18.8972 63.96L12.1738 69.7733L12.2205 69.83C14.7005 72.7267 18.1938 74.3333 22.5205 74.3333C29.0638 74.3333 33.7672 71.24 42.1338 56.5667L48.0205 46.1333C46.7145 44.001 45.354 41.9047 43.9338 39.8467Z" fill="#0082FB"/>
<path d="M53.0069 27.4866L52.9536 27.5399C51.6202 28.9733 50.3336 30.5666 49.0869 32.2599C50.3469 33.8699 51.6469 35.6733 53.0036 37.6933C54.6036 35.2166 56.0969 33.2099 57.5602 31.6699L57.6136 31.6166L53.0069 27.4866Z" fill="url(#paint6_linear_10022_741)"/>
<path d="M77.7269 26.71C74.1769 23.11 69.9436 21 65.4169 21C60.6436 21 56.6269 23.6233 53.0069 27.48L52.9536 27.5333L57.5603 31.6667L57.6136 31.61C59.9969 29.12 62.3069 27.8767 64.8669 27.8767C67.6203 27.8767 70.2003 29.1767 72.4336 31.46L72.4836 31.5133L77.7803 26.7633L77.7269 26.71Z" fill="#0082FB"/>
<path d="M87.9936 54.75C87.7936 43.1933 83.7603 32.8633 77.7803 26.7633L77.7269 26.71L72.4336 31.4566L72.4836 31.51C76.9836 36.15 80.0736 44.7766 80.3536 54.7466V54.8233H87.9936V54.75Z" fill="url(#paint7_linear_10022_741)"/>
<path d="M87.9937 54.8334V54.7567H80.3537V54.83C80.367 55.2967 80.3737 55.77 80.3737 56.2434C80.3737 58.96 79.9704 61.1567 79.147 62.7434L79.1104 62.8167L84.8037 68.7567L84.847 68.69C86.9137 65.49 88.0004 61.0467 88.0004 55.6567C88.0004 55.38 88.0003 55.1067 87.9937 54.8334Z" fill="url(#paint8_linear_10022_741)"/>
<path d="M79.147 62.7333L79.1104 62.7999C78.397 64.1399 77.3804 65.0333 76.0537 65.4233L78.647 73.6299C79.1469 73.461 79.6347 73.2583 80.107 73.0233C81.9529 72.0901 83.5226 70.6905 84.6604 68.9633L84.807 68.7466L84.847 68.6799L79.147 62.7333Z" fill="url(#paint9_linear_10022_741)"/>
<path d="M74.4005 65.6433C73.5272 65.6433 72.7605 65.5133 72.0072 65.1766L69.3472 73.5833C70.8438 74.0933 72.4372 74.3233 74.2138 74.3233C75.8538 74.3233 77.3572 74.08 78.7205 73.6066L76.1205 65.4C75.5638 65.5666 74.9872 65.65 74.4005 65.6433Z" fill="url(#paint10_linear_10022_741)"/>
<path d="M69.0773 62.7801L69.0306 62.7234L62.9106 69.1034L62.964 69.1601C65.0873 71.4334 67.1173 72.8434 69.4206 73.6167L72.0773 65.2167C71.1073 64.8001 70.1673 64.0401 69.0773 62.7801Z" fill="url(#paint11_linear_10022_741)"/>
<path d="M69.0303 62.7166C67.197 60.5766 64.9237 57.0099 61.3537 51.2499L56.7003 43.4633L56.6637 43.3966L51.2637 51.5233L51.3037 51.5899L54.6003 57.1499C57.797 62.5166 60.4003 66.3966 62.9103 69.0999L62.9637 69.1533L69.077 62.7733C69.0614 62.7545 69.0458 62.7356 69.0303 62.7166Z" fill="url(#paint12_linear_10022_741)"/>
<defs>
<linearGradient id="paint0_linear_10022_741" x1="1996.29" y1="2749.89" x2="390.407" y2="638.844" gradientUnits="userSpaceOnUse">
<stop offset="0.0006" stop-color="#0867DF"/>
<stop offset="0.4539" stop-color="#0668E1"/>
<stop offset="0.8591" stop-color="#0064E0"/>
</linearGradient>
<linearGradient id="paint1_linear_10022_741" x1="367.632" y1="1138.37" x2="1513.46" y2="266.278" gradientUnits="userSpaceOnUse">
<stop offset="0.1323" stop-color="#0064DF"/>
<stop offset="0.9988" stop-color="#0064E0"/>
</linearGradient>
<linearGradient id="paint2_linear_10022_741" x1="519.708" y1="1551.48" x2="986.842" y2="372.001" gradientUnits="userSpaceOnUse">
<stop offset="0.0147" stop-color="#0072EC"/>
<stop offset="0.6881" stop-color="#0064DF"/>
</linearGradient>
<linearGradient id="paint3_linear_10022_741" x1="448.22" y1="967.687" x2="505.206" y2="208.037" gradientUnits="userSpaceOnUse">
<stop offset="0.0731" stop-color="#007CF6"/>
<stop offset="0.9943" stop-color="#0072EC"/>
</linearGradient>
<linearGradient id="paint4_linear_10022_741" x1="474.113" y1="381.601" x2="457.736" y2="259.352" gradientUnits="userSpaceOnUse">
<stop offset="0.0731" stop-color="#007FF9"/>
<stop offset="1" stop-color="#007CF6"/>
</linearGradient>
<linearGradient id="paint5_linear_10022_741" x1="403.203" y1="189.074" x2="653.192" y2="721.022" gradientUnits="userSpaceOnUse">
<stop offset="0.0731" stop-color="#007FF9"/>
<stop offset="1" stop-color="#0082FB"/>
</linearGradient>
<linearGradient id="paint6_linear_10022_741" x1="345.883" y1="730.534" x2="647.356" y2="312.353" gradientUnits="userSpaceOnUse">
<stop offset="0.2799" stop-color="#007FF8"/>
<stop offset="0.9141" stop-color="#0082FB"/>
</linearGradient>
<linearGradient id="paint7_linear_10022_741" x1="753.37" y1="201.997" x2="1423.01" y2="2673.17" gradientUnits="userSpaceOnUse">
<stop stop-color="#0082FB"/>
<stop offset="0.9995" stop-color="#0081FA"/>
</linearGradient>
<linearGradient id="paint8_linear_10022_741" x1="612.999" y1="120.011" x2="220.136" y2="916.527" gradientUnits="userSpaceOnUse">
<stop offset="0.0619" stop-color="#0081FA"/>
<stop offset="1" stop-color="#0080F9"/>
</linearGradient>
<linearGradient id="paint9_linear_10022_741" x1="342.333" y1="709.123" x2="659.322" y2="492.548" gradientUnits="userSpaceOnUse">
<stop stop-color="#027AF3"/>
<stop offset="1" stop-color="#0080F9"/>
</linearGradient>
<linearGradient id="paint10_linear_10022_741" x1="260.873" y1="522.519" x2="839.01" y2="522.519" gradientUnits="userSpaceOnUse">
<stop stop-color="#0377EF"/>
<stop offset="0.9994" stop-color="#0279F1"/>
</linearGradient>
<linearGradient id="paint11_linear_10022_741" x1="432.355" y1="447.236" x2="757.86" y2="639.394" gradientUnits="userSpaceOnUse">
<stop offset="0.0019" stop-color="#0471E9"/>
<stop offset="1" stop-color="#0377EF"/>
</linearGradient>
<linearGradient id="paint12_linear_10022_741" x1="625.815" y1="551.292" x2="1689.06" y2="1892.21" gradientUnits="userSpaceOnUse">
<stop offset="0.2765" stop-color="#0867DF"/>
<stop offset="1" stop-color="#0471E9"/>
</linearGradient>
</defs>
</svg>
