<svg width="96" height="96" viewBox="0 0 96 96" fill="none" xmlns="http://www.w3.org/2000/svg">
<path d="M51.2414 28.1319C49.4604 28.1319 48.1832 28.3296 47.4099 28.7327C49.1736 23.5642 50.5116 15.2023 58.3572 15.2023C65.8463 15.2023 65.4207 24.1056 68.6443 28.1319H51.2414ZM58.2353 35.4036C55.9242 43.4653 53.6739 51.5786 51.059 59.5714C50.2684 61.9152 48.0789 63.5379 45.5854 63.5379H36.7057C37.3139 62.6364 37.8004 61.6748 38.1045 60.5931C40.4156 52.5397 42.6659 44.4265 45.2808 36.4253C46.0715 34.0815 48.2609 32.4588 50.7545 32.4588H59.6341C59.026 33.3603 58.5394 34.3219 58.2353 35.4037M37.6356 80.7863C30.1465 80.7863 30.572 71.892 27.3484 67.865H44.7513C46.5411 67.865 47.8183 67.6673 48.5828 67.2642C46.8191 72.4326 45.4811 80.7863 37.6356 80.7863ZM88.2973 31.9182H88.3579C86.2292 29.4542 82.9972 28.1921 78.8005 28.1921H76.4286C74.1784 28.0118 72.1714 26.5094 71.4416 24.406L69.0696 17.7351C67.6711 13.7598 63.8395 11.0552 59.5735 11.0552H28.6169C17.1744 11.0552 12.2481 25.5476 9.57192 34.3215C7.07836 42.5036 1.36147 56.3258 7.99063 64.0784C11.0316 67.6242 15.5931 67.8045 19.9199 67.8045C22.1701 67.9848 24.1771 69.4872 24.907 71.5907L27.2789 78.2616C28.6777 82.2366 32.5092 84.9408 36.7665 84.9408H67.7316C79.1656 84.9408 84.0919 70.4484 86.7766 61.6745C88.7836 55.1839 91.2163 47.1911 91.0947 40.7604C91.0947 37.5065 90.3649 34.3213 88.2971 31.9176" fill="white"/>
</svg>
