<svg width="96" height="96" viewBox="0 0 96 96" fill="none" xmlns="http://www.w3.org/2000/svg">
<path d="M38.4604 25.9729C39.659 27.0391 40.8804 28.2601 42.0755 29.5453L25.5669 41.1925V35.0671L38.4604 25.9729Z" fill="#E50204"/>
<path d="M42.5933 59.7755L35.5118 59.3211L34.1348 59.622L53.5925 45.8978L55.8462 50.4278L42.5933 59.7755Z" fill="#750886"/>
<path d="M34.1345 59.6223L26.9307 61.1967L18.293 64.72L18.3278 64.6518L51.3386 41.3682L53.5923 45.8981L34.1345 59.6223Z" fill="#004DFF"/>
<path d="M18.3276 64.6516L22.5549 56.3662L22.8382 55.3506L48.4978 37.252C49.5281 38.6116 50.3953 39.8194 51.0253 40.7387L51.3384 41.368L18.3276 64.6516Z" fill="#018126"/>
<path d="M22.8384 55.3505L24.9636 47.7319L45.3866 33.3269C46.5191 34.6915 47.574 36.0328 48.4979 37.252L22.8384 55.3505Z" fill="#FDEF03"/>
<path d="M25.5667 41.187V45.5692L24.9634 47.7321L45.3865 33.327C44.3348 32.0599 43.2163 30.7725 42.0739 29.5439L25.5667 41.187Z" fill="#FF8B01"/>
<path d="M61.2576 63.5942C60.7436 60.0785 59.7042 56.6615 58.4737 53.3373C56.6193 48.4835 54.2314 43.8407 51.3994 39.488C48.6315 35.219 45.4779 31.1943 41.927 27.5525C38.2742 23.7742 34.2277 20.3859 29.9271 17.3713C25.9618 14.6251 21.7905 12.1506 17.3719 10.2024C17.0308 10.0384 16.6302 9.91001 16.265 10.0809C15.6297 10.2838 15.2371 11.0509 15.49 11.6782C15.6629 12.1196 15.9433 12.5083 16.1631 12.9292C18.2694 16.7945 20.0814 20.8273 21.5123 24.9943C22.9295 29.1635 23.9757 33.4922 24.1955 37.9033C24.3214 41.0372 24.0559 44.1744 23.6392 47.2784C23.25 49.6164 22.7303 51.9361 22.0068 54.195C20.6744 58.198 18.812 62.0944 16.0509 65.313C15.6675 65.7946 15.0264 66.2063 15.0837 66.9C15.0928 67.7783 16.1517 68.4354 16.9209 67.9687C19.6831 66.1799 22.6811 64.7798 25.7638 63.6446C29.5367 62.3145 33.4871 61.4052 37.4935 61.2481C39.7532 61.1507 42.0197 61.2447 44.2713 61.4671C49.5278 62.084 54.7145 63.374 59.6115 65.3944C60.2033 65.6731 60.9485 65.3394 61.2187 64.7626C61.3801 64.39 61.3091 63.9783 61.2599 63.5907L61.2576 63.5942ZM52.3049 60.3824C50.6038 59.9157 48.8605 59.6313 47.1285 59.3091C44.1088 58.8849 41.0559 58.6051 38.0007 58.706C32.8506 58.8665 27.7636 60.0694 23.0016 62.0175C22.2587 62.2618 21.5947 62.6975 20.8427 62.9188C23.8006 57.9068 25.5405 52.232 26.272 46.4734C26.5296 44.6113 26.6944 42.7353 26.6978 40.8537C26.7803 39.957 26.786 39.0557 26.699 38.159C26.7024 35.9598 26.3098 33.7868 25.9355 31.6265C24.8159 26.1765 22.8768 20.9248 20.5073 15.9024C20.22 15.3199 19.9178 14.7443 19.6705 14.1446C19.92 14.2375 20.1673 14.3395 20.4031 14.468C30.283 19.808 39.1614 27.1225 45.9518 36.1042C50.6943 42.3707 54.5702 49.3424 57.0314 56.8243C57.5968 58.5993 58.1097 60.3939 58.4519 62.2262C56.4235 61.5474 54.3928 60.856 52.3037 60.3835L52.3049 60.3824Z" fill="white"/>
<path d="M78.5645 62.5899C76.7685 57.7121 74.6038 52.9695 72.0946 48.4184C69.6988 44.1208 66.9778 39.9733 63.6719 36.3155C61.8747 34.3123 59.9779 32.4019 58.064 30.5122C54.813 27.3991 51.3892 24.4235 47.5625 22.0384C45.7515 20.9342 43.8559 19.9102 41.7909 19.3816C41.2437 19.2704 40.6645 19.0778 40.1104 19.2372C39.1741 19.486 38.9314 20.8689 39.7212 21.4238C41.586 22.6416 43.3534 24.0073 45.0178 25.4853C48.5263 28.5457 51.6033 32.1072 54.0506 36.0735C58.9683 43.9155 62.6875 52.4776 65.3729 61.3286C65.5961 62.0006 65.5916 62.8353 66.1971 63.3078C66.5382 63.5944 67.0121 63.5417 67.4208 63.474C68.617 63.2309 69.835 63.052 71.0598 63.0841C71.9859 63.1059 72.8639 63.4408 73.7442 63.6976C74.5912 63.9969 75.4314 64.3134 76.2614 64.6574C76.7776 64.8638 77.2813 65.2135 77.8617 65.1596C78.4123 65.1057 78.8804 64.6344 78.948 64.0863C79.0121 63.5566 78.7351 63.0738 78.5679 62.5899H78.5645ZM72.5342 60.7278C70.9843 60.4239 69.3874 60.589 67.8398 60.8184C65.4359 52.762 62.1414 44.9658 57.9575 37.6719C56.9033 35.8832 55.8192 34.1093 54.639 32.3985C53.2986 30.4859 51.8036 28.6856 50.2102 26.9805C54.125 30.0272 57.6565 33.536 61.0333 37.1628C64.282 40.5948 66.9652 44.5232 69.3141 48.6133C71.4296 52.3136 73.2725 56.1652 74.9003 60.1017C75.1086 60.589 75.309 61.0832 75.4658 61.5912C74.4802 61.3309 73.5312 60.9456 72.5342 60.7266V60.7278Z" fill="white"/>
<path d="M92.6559 83.0035C92.2048 82.4761 91.4642 82.6309 90.8678 82.4635C89.5846 82.1332 88.599 81.1895 87.6237 80.3467C86.3806 79.2379 85.0802 78.0936 83.4639 77.581C81.8808 77.0111 80.0893 77.0558 78.5302 77.6899C76.7399 78.3642 75.3525 79.7241 73.8781 80.8903C72.8788 81.6895 71.7226 82.3901 70.42 82.4876C69.2615 82.5621 68.0275 82.2961 67.1141 81.5484C68.3881 80.9636 69.6393 80.3364 70.8733 79.6759C73.83 78.058 76.8131 76.4699 79.5902 74.5515C82.1189 72.8373 84.5536 70.9866 86.9518 69.0935C87.2632 68.8435 87.6203 68.5901 87.729 68.1819C87.982 67.393 87.2689 66.4779 86.4367 66.5765C82.761 66.7726 79.0888 67.0845 75.4143 67.284C71.3987 67.5145 67.3865 67.8298 63.372 68.0672C59.3976 68.2725 55.4301 68.6164 51.4568 68.8286C47.4858 69.0579 43.5183 69.3755 39.5484 69.5945C35.6164 69.8204 31.69 70.1461 27.7557 70.3502C23.9221 70.6024 20.0873 70.8593 16.2548 71.1127C14.2814 71.2274 12.3033 71.3237 10.3344 71.498C9.5732 71.5301 9.01229 72.3958 9.271 73.1056C9.42553 73.523 9.66249 73.9025 9.86396 74.2993C10.5004 75.4551 11.0899 76.6373 11.7241 77.7954C10.426 78.6245 9.16569 79.5085 7.90308 80.3903C6.87971 81.0531 5.88268 81.7996 4.71852 82.194C4.24919 82.2754 3.70659 82.2456 3.36661 82.6458C2.71184 83.234 2.97741 84.4415 3.81991 84.6949C4.62693 84.9185 5.46715 84.6134 6.21922 84.3256C8.71125 83.1388 10.7992 81.2836 13.1676 79.8869C13.8086 79.5418 14.4554 79.1267 15.1994 79.0705C15.9904 79.145 16.6154 79.6954 17.2416 80.13C18.9815 81.4842 20.6173 83.0207 22.6263 83.9736C24.3559 84.8233 26.3912 85.1352 28.2651 84.6054C30.4881 84.047 32.2063 82.4463 33.9989 81.115C34.846 80.4935 35.7732 79.8915 36.8401 79.7677C37.8142 79.6232 38.8181 79.8846 39.6423 80.4087C41.2827 81.4269 42.5636 82.9313 44.2555 83.8727C45.9531 84.8932 48.0799 85.259 49.9916 84.6731C51.7327 84.2144 53.1498 83.0311 54.4811 81.8741C55.5159 81.037 56.5679 80.0945 57.9129 79.8273C59.2877 79.536 60.7529 79.8778 61.885 80.7056C63.783 82.0209 65.3466 83.9083 67.6086 84.6306C69.5672 85.345 71.8016 85.0996 73.6137 84.0917C75.056 83.3361 76.2213 82.1745 77.5046 81.1941C78.3333 80.568 79.2376 79.9626 80.285 79.7986C81.4767 79.5773 82.7473 79.8307 83.7661 80.4878C85.2931 81.4464 86.4561 82.8728 87.9649 83.8555C89.1245 84.6455 90.5221 85.1833 91.9427 85.0928C92.8756 84.9873 93.3805 83.6583 92.6547 83.0058L92.6559 83.0035ZM64.7983 79.7C64.3965 79.4856 64.0714 79.1554 63.7017 78.8962C62.3155 77.8711 60.6305 77.1567 58.8859 77.1934C57.4711 77.1888 56.07 77.6487 54.8863 78.4158C53.2872 79.3847 52.0578 80.8582 50.43 81.7858C49.283 82.4841 47.8292 82.5747 46.562 82.1917C44.481 81.4143 43.0695 79.5911 41.2266 78.4295C39.9056 77.5604 38.3064 77.0398 36.7164 77.2232C35.1264 77.4079 33.6715 78.1807 32.4192 79.1508C30.8681 80.2711 29.4396 81.6998 27.5393 82.2055C25.8097 82.6561 24.0194 82.0231 22.5839 81.0611C20.8245 79.9534 19.373 78.4307 17.6125 77.3242C16.5605 76.6648 15.2418 76.3013 14.0318 76.7245C13.4766 75.8071 13.0073 74.8394 12.5151 73.8876C16.5651 73.5803 20.6173 73.3326 24.6707 73.0987C28.731 72.7983 32.7924 72.5541 36.8538 72.3098C40.0968 72.0736 43.3408 71.8615 46.5861 71.6837C51.411 71.3352 56.2382 71.0519 61.0666 70.7435C65.468 70.4052 69.8762 70.216 74.2788 69.8778C76.2831 69.77 78.2795 69.5762 80.2862 69.5131C80.9547 69.4512 81.6266 69.3824 82.2986 69.4157C82.1131 69.6221 81.9071 69.8101 81.6839 69.9752C79.7196 71.4074 77.7495 72.8373 75.6673 74.094C72.6705 75.8404 69.6542 77.5627 66.52 79.0487C65.9545 79.2861 65.3959 79.5613 64.7995 79.7023L64.7983 79.7Z" fill="white"/>
</svg>
