<svg width="96" height="96" viewBox="0 0 96 96" fill="none" xmlns="http://www.w3.org/2000/svg">
<path d="M61.9035 15.5001C65.6605 15.5001 68.7058 18.5129 68.7058 22.2276V62.8559C68.7318 63.4783 68.9985 64.0664 69.4495 64.4962C69.9005 64.926 70.5007 65.164 71.1237 65.1601C71.7462 65.1632 72.3456 64.9248 72.7959 64.4951C73.2463 64.0654 73.5124 63.4778 73.5385 62.8559V38.5719C73.5432 37.6927 73.721 36.823 74.0618 36.0125C74.4026 35.202 74.8997 34.4666 75.5247 33.8482C76.1497 33.2299 76.8904 32.7407 77.7044 32.4085C78.5185 32.0764 79.39 31.9079 80.2693 31.9126C81.1487 31.9079 82.0205 32.0765 82.8348 32.4089C83.6491 32.7412 84.3899 33.2307 85.015 33.8494C85.64 34.4681 86.137 35.2039 86.4776 36.0148C86.8182 36.8256 86.9957 37.6956 87 38.5751V59.8984C86.9966 60.4572 86.7715 60.9918 86.3742 61.3849C85.9769 61.7779 85.4398 61.9972 84.881 61.9946C84.604 61.9963 84.3294 61.9435 84.0728 61.839C83.8163 61.7346 83.5828 61.5807 83.3857 61.386C83.1886 61.1914 83.0318 60.9598 82.9243 60.7046C82.8167 60.4493 82.7605 60.1754 82.7587 59.8984V38.5751C82.757 38.2499 82.6913 37.9282 82.5653 37.6284C82.4392 37.3286 82.2554 37.0565 82.0242 36.8278C81.793 36.599 81.5191 36.418 81.218 36.2951C80.9168 36.1723 80.5945 36.1099 80.2693 36.1116C79.944 36.1099 79.6217 36.1723 79.3205 36.2951C79.0194 36.418 78.7455 36.599 78.5143 36.8278C78.2831 37.0565 78.0993 37.3286 77.9732 37.6284C77.8472 37.9282 77.7815 38.2499 77.7798 38.5751V62.8591C77.7751 63.7285 77.5992 64.5885 77.2622 65.3899C76.9251 66.1913 76.4335 66.9185 75.8155 67.5299C75.1974 68.1413 74.465 68.625 73.6599 68.9534C72.8549 69.2817 71.9931 69.4483 71.1237 69.4436C70.2544 69.4483 69.3926 69.2817 68.5876 68.9534C67.7825 68.625 67.0501 68.1413 66.432 67.5299C65.814 66.9185 65.3224 66.1913 64.9853 65.3899C64.6483 64.5885 64.4724 63.7285 64.4677 62.8591V22.2341C64.4408 21.574 64.1589 20.95 63.6812 20.4936C63.2035 20.0371 62.5674 19.7838 61.9067 19.7869C61.246 19.7829 60.6096 20.0354 60.1313 20.4913C59.653 20.9471 59.3703 21.5707 59.3425 22.2309L59.3393 73.9189C59.3289 75.6741 58.622 77.3534 57.3738 78.5875C56.1257 79.8217 54.4385 80.5096 52.6832 80.5001C51.8139 80.5048 50.9521 80.3382 50.1471 80.0099C49.342 79.6815 48.6096 79.1978 47.9915 78.5864C47.3735 77.975 46.8819 77.2478 46.5448 76.4464C46.2078 75.645 46.0319 74.785 46.0272 73.9156V67.6301C46.0272 66.4731 46.9763 65.5339 48.1463 65.5339C49.3163 65.5339 50.2652 66.4731 50.2652 67.6301V73.9156C50.2652 74.7704 50.7268 75.5601 51.4743 75.9891C52.2218 76.4149 53.1447 76.4149 53.8922 75.9891C54.259 75.7812 54.5642 75.4797 54.7765 75.1155C54.9889 74.7513 55.101 74.3372 55.1013 73.9156V22.2276C55.1013 18.5129 58.1465 15.5001 61.9035 15.5001ZM43.463 15.5001C47.22 15.5001 50.2652 18.5129 50.2652 22.2276V59.6774C50.264 59.9542 50.2081 60.2281 50.1009 60.4833C49.9937 60.7385 49.8372 60.9701 49.6404 61.1648C49.4436 61.3595 49.2103 61.5135 48.9539 61.618C48.6975 61.7224 48.4231 61.7753 48.1463 61.7736C47.8694 61.7753 47.595 61.7224 47.3386 61.618C47.0822 61.5135 46.8489 61.3595 46.6521 61.1648C46.4553 60.9701 46.2988 60.7385 46.1916 60.4833C46.0844 60.2281 46.0285 59.9542 46.0272 59.6774V22.2276C46.023 21.5516 45.7505 20.9048 45.2697 20.4295C44.7889 19.9542 44.1391 19.6892 43.463 19.6926C42.7869 19.6892 42.1371 19.9542 41.6563 20.4295C41.1755 20.9048 40.903 21.5516 40.8987 22.2276V67.7699C40.8884 69.5444 40.1741 71.2422 38.9126 72.4902C37.6511 73.7383 35.9458 74.4345 34.1712 74.4259C32.3962 74.4354 30.69 73.7396 29.4278 72.4914C28.1656 71.2432 27.4508 69.5449 27.4405 67.7699V38.5751C27.4388 38.2499 27.3731 37.9282 27.247 37.6284C27.121 37.3286 26.9371 37.0565 26.706 36.8278C26.4748 36.599 26.2008 36.418 25.8997 36.2951C25.5986 36.1723 25.2762 36.1099 24.951 36.1116C24.6258 36.1099 24.3034 36.1723 24.0023 36.2951C23.7012 36.418 23.4272 36.599 23.196 36.8278C22.9649 37.0565 22.781 37.3286 22.655 37.6284C22.5289 37.9282 22.4632 38.2499 22.4615 38.5751V50.9251C22.4568 51.8043 22.279 52.674 21.9382 53.4845C21.5974 54.295 21.1003 55.0304 20.4753 55.6488C19.8503 56.2671 19.1096 56.7563 18.2956 57.0884C17.4815 57.4206 16.61 57.5891 15.7308 57.5844C14.8515 57.5891 13.98 57.4206 13.1659 57.0884C12.3519 56.7563 11.6112 56.2671 10.9862 55.6488C10.3612 55.0304 9.86407 54.295 9.52328 53.4845C9.18249 52.674 9.00468 51.8043 9 50.9251L9 46.4466C9 45.2864 9.949 44.3471 11.119 44.3471C12.289 44.3471 13.2412 45.2896 13.2412 46.4466V50.9251C13.2412 52.2836 14.356 53.3854 15.7308 53.3854C17.1055 53.3854 18.2202 52.2836 18.2202 50.9251V38.5719C18.2306 36.7974 18.9449 35.0995 20.2064 33.8515C21.4679 32.6034 23.1732 31.9072 24.9478 31.9159C26.7228 31.9064 28.429 32.6022 29.6912 33.8503C30.9534 35.0985 31.6682 36.7968 31.6785 38.5719V67.7699C31.6785 69.1316 32.7932 70.2334 34.1712 70.2334C35.546 70.2334 36.6607 69.1316 36.6607 67.7699V22.2276C36.6607 18.5129 39.706 15.5001 43.463 15.5001Z" fill="white"/>
</svg>
