<svg width="96" height="96" viewBox="0 0 96 96" fill="none" xmlns="http://www.w3.org/2000/svg">
<path fill-rule="evenodd" clip-rule="evenodd" d="M33.5477 9.31984C34.3101 9.62119 34.9983 10.1175 35.623 10.7734C36.6642 11.8583 37.543 13.4112 38.2136 15.2512C38.8877 17.1019 39.3254 19.1511 39.4913 21.2074C41.7134 19.9445 44.1796 19.1756 46.7231 18.9525L46.9031 18.9383C49.9737 18.6902 53.009 19.2468 55.656 20.6188C56.0125 20.8067 56.3619 21.0088 56.7043 21.2215C56.8808 19.2042 57.3114 17.2011 57.9749 15.393C58.6455 13.5494 59.5243 12.0001 60.562 10.9117C61.1418 10.2816 61.8512 9.78558 62.6408 9.45811C63.5479 9.10357 64.5114 9.03976 65.4502 9.3092C66.8655 9.71337 68.0796 10.6139 69.0361 11.9221C69.9114 13.1169 70.5679 14.6485 71.0161 16.485C71.8279 19.7963 71.9691 24.1535 71.422 29.4077L71.6091 29.5496L71.7008 29.6169C74.3726 31.659 76.2326 34.5698 77.2173 37.9485C78.7526 43.2204 77.9797 49.134 75.3326 52.4418L75.2691 52.5163L75.2762 52.5269C76.7479 55.2285 77.6409 58.0825 77.8315 61.0357L77.8385 61.1421C78.0644 64.9179 77.1326 68.7185 74.9656 72.4517L74.9409 72.4872L74.9762 72.5723C76.642 76.6742 77.1644 80.8045 76.522 84.9313L76.5009 85.0696C76.4013 85.6724 76.0679 86.211 75.5737 86.5672C75.0794 86.9234 74.4647 87.0682 73.8644 86.9699C73.5671 86.9233 73.2819 86.8182 73.0251 86.6607C72.7683 86.5031 72.545 86.2962 72.368 86.0519C72.1909 85.8075 72.0636 85.5304 71.9934 85.2365C71.9231 84.9427 71.9112 84.6377 71.9585 84.3393C72.5479 80.6769 71.9938 77.0039 70.2644 73.2672C70.103 72.92 70.0314 72.5376 70.056 72.1553C70.0807 71.7729 70.2009 71.403 70.4055 71.0797L70.4197 71.0584C72.5514 67.7825 73.4338 64.5704 73.2432 61.4151C73.0809 58.6533 72.0961 55.9411 70.4197 53.3565C70.0936 52.8541 69.9774 52.2429 70.0963 51.6551C70.2152 51.0673 70.5596 50.5502 71.055 50.2153L71.0867 50.1941C71.9444 49.6304 72.735 48.191 73.1338 46.2233C73.5739 43.8966 73.4589 41.4983 72.7985 39.2248C72.075 36.743 70.7514 34.6726 68.8985 33.258C66.7985 31.6484 64.0173 30.872 60.4984 31.0953C60.0383 31.1254 59.5798 31.0161 59.1821 30.7816C58.7845 30.5471 58.466 30.1982 58.2678 29.78C57.1596 27.4223 55.5431 25.7348 53.5278 24.6889C51.593 23.7189 49.4268 23.3112 47.2737 23.5118C42.8795 23.8628 39.0042 26.3517 37.8501 29.4893C37.6868 29.9309 37.3931 30.3118 37.0083 30.5811C36.6236 30.8504 36.1661 30.9952 35.6971 30.9961C31.9312 31.0031 29.0159 31.8895 26.8841 33.4884C25.0418 34.8711 23.7853 36.8033 23.1218 39.1184C22.5213 41.2976 22.4391 43.588 22.8818 45.8049C23.2771 47.7832 24.05 49.4212 24.9359 50.304L24.9641 50.3288C25.7124 51.0627 25.8712 52.2078 25.3488 53.1119C24.0782 55.3171 23.1288 58.6036 22.9735 61.7625C22.797 65.3717 23.63 68.5058 25.5112 70.7535L25.5677 70.8209C25.8515 71.1532 26.0341 71.5606 26.0936 71.9945C26.1531 72.4283 26.0869 72.8701 25.9029 73.2672C23.87 77.6492 23.2453 81.2513 23.9194 84.0875C24.0406 84.6773 23.9278 85.2913 23.6052 85.7989C23.2825 86.3064 22.7754 86.6674 22.1918 86.8051C21.6082 86.9428 20.9941 86.8462 20.4803 86.536C19.9664 86.2258 19.5934 85.7264 19.4406 85.144C18.5829 81.5349 19.1653 77.401 21.11 72.7424L21.1594 72.6184L21.1312 72.5758C20.1754 71.1577 19.462 69.5891 19.0206 67.935L19.0029 67.8676C18.4672 65.8038 18.2564 63.6685 18.3782 61.5392C18.5335 58.3129 19.3594 55.0086 20.5735 52.3567L20.6159 52.2646L20.6088 52.2575C19.5747 50.7755 18.8088 48.8788 18.3853 46.7799L18.3676 46.6948C17.7841 43.7672 17.8965 40.7426 18.6958 37.8669C19.6206 34.6229 21.4382 31.8363 24.1171 29.8225C24.3288 29.663 24.5512 29.5035 24.7735 29.3546C24.2124 24.0614 24.3535 19.6758 25.1688 16.3432C25.6171 14.5067 26.2771 12.9751 27.1524 11.7803C28.1053 10.4756 29.3194 9.5751 30.7347 9.16739C31.6736 8.89794 32.6406 8.95821 33.5477 9.31629V9.31984ZM48.0748 41.547C51.3784 41.547 54.4278 42.6567 56.7078 44.5783C58.9314 46.4466 60.2549 48.9568 60.2549 51.4562C60.2549 54.6045 58.8219 57.0579 56.2561 58.6249C54.0678 59.9544 51.1348 60.5997 47.7748 60.5997C44.2136 60.5997 41.1713 59.6814 38.976 57.9974C36.7983 56.3311 35.5771 53.9911 35.5771 51.4562C35.5771 48.9497 36.9818 46.4325 39.3042 44.557C41.6619 42.6531 44.7748 41.547 48.0748 41.547ZM48.0748 44.7236C45.6262 44.7021 43.2426 45.5144 41.3124 47.0281C39.6854 48.3399 38.7642 49.9884 38.7642 51.4598C38.7642 52.9772 39.5054 54.3988 40.9171 55.4802C42.523 56.7104 44.8842 57.423 47.7748 57.423C50.5948 57.423 52.9737 56.9019 54.5937 55.9127C56.2278 54.92 57.0643 53.4806 57.0643 51.4562C57.0643 49.9565 56.1961 48.3009 54.6537 47.0033C52.9454 45.5674 50.6301 44.7236 48.0748 44.7236ZM50.4113 49.0135L50.4254 49.0277C50.849 49.563 50.7607 50.3394 50.2278 50.7649L49.1972 51.5803V53.1615C49.1953 53.5135 49.0546 53.8504 48.8058 54.0983C48.557 54.3462 48.2205 54.4849 47.8701 54.4839C47.5197 54.4849 47.1832 54.3462 46.9345 54.0983C46.6857 53.8504 46.5449 53.5135 46.5431 53.1615V51.5307L45.5866 50.7578C45.4604 50.6562 45.3555 50.5306 45.2779 50.3881C45.2003 50.2456 45.1516 50.0891 45.1346 49.9276C45.1175 49.7661 45.1324 49.6028 45.1785 49.4471C45.2246 49.2914 45.3009 49.1465 45.4031 49.0206C45.6114 48.7658 45.9114 48.6039 46.2378 48.5701C46.5643 48.5362 46.8909 48.6331 47.1466 48.8398L47.9054 49.4496L48.6819 48.8327C48.9367 48.6304 49.2602 48.5361 49.5832 48.5699C49.9062 48.6037 50.2034 48.7628 50.4113 49.0135ZM32.623 42.21C34.3101 42.21 35.683 43.5926 35.683 45.298C35.6839 46.1154 35.3618 46.8998 34.7874 47.4788C34.213 48.0578 33.4332 48.3841 32.6195 48.386C31.8069 48.3831 31.0286 48.0569 30.4551 47.4788C29.8815 46.9006 29.5594 46.1177 29.5594 45.3015C29.5576 44.4841 29.8788 43.6993 30.4526 43.1196C31.0263 42.54 31.8092 42.2128 32.623 42.21ZM63.3502 42.21C65.0443 42.21 66.4138 43.5926 66.4138 45.298C66.4147 46.1154 66.0926 46.8998 65.5181 47.4788C64.9437 48.0578 64.164 48.3841 63.3502 48.386C62.5377 48.3831 61.7594 48.0569 61.1858 47.4788C60.6122 46.9006 60.2902 46.1177 60.2902 45.3015C60.2883 44.4841 60.6095 43.6993 61.1833 43.1196C61.7571 42.54 62.5364 42.2128 63.3502 42.21ZM31.9065 13.6097L31.8959 13.6168C31.487 13.7954 31.1379 14.0883 30.89 14.4606L30.8724 14.4819C30.3853 15.1519 29.9618 16.1375 29.6441 17.4316C29.0441 19.885 28.8818 23.214 29.2065 27.2947C30.7242 26.8409 32.3795 26.5573 34.1618 26.4545L34.1971 26.4509L34.2642 26.3304C34.4265 26.0397 34.5995 25.7596 34.7865 25.483C35.2206 22.7496 34.8642 19.4843 33.8936 16.8182C33.4206 15.5277 32.8453 14.5138 32.2947 13.9359C32.1811 13.8157 32.0544 13.7087 31.9171 13.6168L31.9065 13.6097ZM64.2855 13.7515L64.2784 13.7551C64.1411 13.847 64.0145 13.954 63.9008 14.0741C63.3502 14.652 62.7714 15.6695 62.302 16.96C61.2784 19.775 60.9361 23.2566 61.4902 26.0787L61.6949 26.4226L61.7231 26.4722H61.829C63.5807 26.4727 65.3232 26.7258 67.0032 27.2238C67.3067 23.2388 67.1373 19.9807 66.5514 17.5734C66.2338 16.2793 65.8102 15.2937 65.3196 14.6237L65.3055 14.6024C65.0582 14.2288 64.709 13.9346 64.2996 13.7551H64.2855V13.7515Z" fill="white"/>
</svg>
