<svg width="96" height="96" viewBox="0 0 96 96" fill="none" xmlns="http://www.w3.org/2000/svg">
<path d="M77.8167 26.5039C77.345 26.0337 76.7839 25.6635 76.1657 25.4154C75.5476 25.1673 74.8861 25.0464 74.2204 25.0599H74.1929C70.2736 25.0599 67.1311 21.8762 67.1311 17.9637C67.1411 17.3112 67.022 16.6632 66.7807 16.0569C66.5394 15.4506 66.1806 14.898 65.7249 14.4309C65.2693 13.9638 64.7259 13.5913 64.1258 13.335C63.5257 13.0786 62.8809 12.9434 62.2284 12.9371H22.3875C21.7356 12.9434 21.0913 13.0784 20.4917 13.3343C19.8921 13.5902 19.3489 13.9621 18.8934 14.4285C18.4378 14.8949 18.0789 15.4466 17.8372 16.0521C17.5954 16.6576 17.4757 17.3049 17.4848 17.9568C17.4848 21.8762 14.308 25.0462 10.3885 25.0462V25.053C9.72855 25.0402 9.07269 25.1595 8.4595 25.4038C7.84631 25.6482 7.28817 26.0126 6.81792 26.4759C6.34766 26.939 5.97478 27.4916 5.7212 28.1011C5.46763 28.7105 5.33848 29.3645 5.34136 30.0245V42.7662C5.33938 43.4263 5.46942 44.0801 5.72383 44.6892C5.97824 45.2983 6.35189 45.8503 6.82278 46.3129C7.29369 46.7755 7.85233 47.1392 8.46586 47.3828C9.0794 47.6262 9.73544 47.7446 10.3954 47.7308C12.2714 47.7308 14.0708 48.4751 15.3986 49.8004C16.7265 51.1256 17.4743 52.9235 17.4779 54.7996V67.7406C17.4779 69.3909 19.5614 70.1267 20.5928 68.8408L27.7785 59.8605H62.2284C62.8803 59.8542 63.5245 59.7192 64.1241 59.4633C64.7238 59.2074 65.267 58.8356 65.7225 58.3692C66.178 57.9028 66.5369 57.3509 66.7787 56.7455C67.0204 56.14 67.1402 55.4927 67.1311 54.8408V54.834C67.1311 50.9145 70.2942 47.7377 74.2136 47.7377H74.2204C74.8806 47.7524 75.5372 47.6347 76.1513 47.3916C76.7653 47.1483 77.3244 46.7847 77.7954 46.3219C78.2664 45.8592 78.6398 45.3067 78.8942 44.6972C79.1479 44.0877 79.2772 43.4334 79.2745 42.7731V30.0245C79.2745 28.7524 78.7931 27.4803 77.8167 26.5039ZM69.3453 42.9037C69.3253 44.7696 68.5706 46.5524 67.2447 47.8654C65.9188 49.1784 64.1288 49.9157 62.2628 49.9175H22.3463C20.4803 49.9157 18.6902 49.1784 17.3643 47.8654C16.0384 46.5524 15.2836 44.7696 15.2638 42.9037V29.887C15.2836 28.0212 16.0384 26.2383 17.3643 24.9253C18.6902 23.6123 20.4803 22.875 22.3463 22.8733V22.8595H22.3807V22.8664H62.249C66.1409 22.8664 69.2971 26.002 69.3384 29.8801V42.9037H69.3453Z" fill="white"/>
<path d="M31.2855 28.9313C28.535 28.9313 26.314 31.1592 26.314 33.9097V38.8812C26.2891 39.55 26.3994 40.2171 26.6382 40.8423C26.877 41.4677 27.2395 42.0384 27.7039 42.5204C28.1683 43.0024 28.7251 43.3858 29.3412 43.6477C29.9572 43.9095 30.6196 44.0445 31.2889 44.0445C31.9583 44.0445 32.6208 43.9095 33.2368 43.6477C33.8527 43.3858 34.4096 43.0024 34.874 42.5204C35.3384 42.0384 35.7009 41.4677 35.9397 40.8423C36.1785 40.2171 36.2888 39.55 36.2639 38.8812V33.9097C36.2639 31.1592 34.036 28.9313 31.2855 28.9313ZM53.3238 28.9313C50.5733 28.9313 48.3454 31.1592 48.3454 33.9097V38.8812C48.3454 40.2015 48.8699 41.4678 49.8036 42.4014C50.7372 43.335 52.0035 43.8596 53.3238 43.8596C54.6442 43.8596 55.9104 43.335 56.8441 42.4014C57.7777 41.4678 58.3022 40.2015 58.3022 38.8812V33.9097C58.3022 31.1592 56.0743 28.9313 53.3238 28.9313Z" fill="white"/>
<path d="M30.8655 81.6857L37.838 72.9666H72.2879C72.9404 72.9613 73.5854 72.827 74.1858 72.5714C74.7861 72.3159 75.33 71.9442 75.7866 71.4777C76.2425 71.0112 76.6021 70.4591 76.8441 69.8532C77.0869 69.2473 77.2065 68.5995 77.1976 67.947C77.1907 64.0413 80.3469 60.8645 84.2526 60.8507H84.287C84.9471 60.8645 85.6038 60.7459 86.2178 60.502C86.8319 60.2581 87.3909 59.8937 87.8619 59.4304C88.3329 58.9671 88.7063 58.4142 88.9607 57.8043C89.2145 57.1944 89.3437 56.5399 89.341 55.8792V43.2957C89.341 42.0993 88.9422 40.9303 88.2133 39.9745L86.8174 38.1592V52.5992C86.8195 53.2593 86.6895 53.9132 86.4351 54.5223C86.1807 55.1313 85.8066 55.6834 85.3356 56.1459C84.8653 56.6086 84.3062 56.9723 83.6929 57.2158C83.0795 57.4593 82.4235 57.5776 81.7634 57.5639H81.7359C79.858 57.5712 78.0599 58.3232 76.7355 59.6549C75.4118 60.9866 74.6706 62.7892 74.674 64.667C74.6829 65.3189 74.5633 65.9661 74.3213 66.5717C74.0798 67.1771 73.7209 67.7289 73.2653 68.1953C72.8098 68.6617 72.2666 69.0336 71.667 69.2895C71.0674 69.5454 70.4231 69.6804 69.7712 69.6867H35.3213L27.73 79.1759C27.3971 79.5917 27.2431 80.1226 27.3018 80.652C27.3604 81.1814 27.627 81.6657 28.0428 81.9985C28.4586 82.3314 28.9896 82.4854 29.5189 82.4269C30.0483 82.3678 30.5327 82.1017 30.8655 81.6857Z" fill="white"/>
<path d="M22.8551 72.4097L30.2815 63.1268H64.7313C65.3833 63.1205 66.0275 62.9855 66.6271 62.7296C67.2268 62.4737 67.7699 62.1019 68.2255 61.6355C68.681 61.169 69.0399 60.6173 69.2817 60.0118C69.5234 59.4063 69.6432 58.759 69.6341 58.1071C69.6304 56.2311 70.3712 54.4303 71.6939 53.0999C73.0166 51.7694 74.8132 51.0182 76.689 51.0109H76.7234C77.3835 51.0256 78.0402 50.9079 78.6542 50.6647C79.2683 50.4215 79.8273 50.0578 80.2984 49.595C80.7694 49.1323 81.1428 48.5798 81.3972 47.9703C81.6509 47.3608 81.7802 46.7066 81.7774 46.0462V31.5924L83.5996 33.9647C84.3319 34.9197 84.728 36.0895 84.7273 37.2928V49.8625C84.7294 50.522 84.5994 51.1753 84.3457 51.7839C84.0913 52.3925 83.7186 52.9443 83.2483 53.4067C82.7779 53.8692 82.2203 54.2331 81.6076 54.477C80.9949 54.7209 80.3396 54.84 79.6802 54.8272H79.6458C77.7679 54.8362 75.9705 55.59 74.6482 56.923C73.3252 58.256 72.5854 60.0594 72.5909 61.9372C72.5999 62.5891 72.4802 63.2364 72.2385 63.8418C71.9967 64.4473 71.6377 64.9991 71.1823 65.4655C70.7267 65.9319 70.1836 66.3037 69.5839 66.5597C68.9843 66.8156 68.34 66.9506 67.6881 66.9568H33.2382L26.527 75.3458C26.3342 75.5869 26.0958 75.7877 25.8255 75.9367C25.5551 76.0856 25.258 76.1799 24.9512 76.2141C24.6444 76.2482 24.3339 76.2216 24.0374 76.1358C23.7408 76.0499 23.4641 75.9065 23.223 75.7137C22.9819 75.5209 22.7811 75.2825 22.6321 75.0121C22.4832 74.7417 22.3889 74.4447 22.3547 74.1379C22.3206 73.8311 22.3472 73.5205 22.4331 73.224C22.5189 72.9275 22.6623 72.6508 22.8551 72.4097Z" fill="white"/>
</svg>
