<svg width="96" height="96" viewBox="0 0 96 96" fill="none" xmlns="http://www.w3.org/2000/svg">
<path d="M50.1839 9.47922C51.604 11.9726 53.0169 14.4732 54.4262 16.9774C54.4832 17.0776 54.5657 17.1608 54.6654 17.2186C54.7651 17.2764 54.8783 17.3066 54.9936 17.3063H75.0562C75.685 17.3063 76.2198 17.7038 76.6679 18.4879L81.922 27.7749C82.6086 28.9927 82.7893 29.5022 82.0088 30.7995C81.0692 32.3533 80.155 33.9216 79.2624 35.4972L77.9362 37.8749C77.5532 38.5832 77.1304 38.8867 77.7917 39.7251L87.3749 56.4813C87.9965 57.569 87.7761 58.2665 87.2196 59.2638C85.6404 62.1005 84.0324 64.9155 82.3954 67.7197C81.8208 68.7026 81.1234 69.0747 79.9382 69.0567C77.1304 68.9989 74.3299 69.0206 71.5293 69.1145C71.4693 69.1176 71.411 69.1358 71.3599 69.1674C71.3087 69.1989 71.2663 69.2429 71.2366 69.2952C68.0055 75.0201 64.7472 80.7297 61.4619 86.4237C60.8512 87.4824 60.0887 87.7354 58.842 87.739C55.2393 87.7498 51.6076 87.7535 47.9398 87.7462C47.5983 87.7453 47.2632 87.6542 46.9681 87.4823C46.6731 87.3104 46.4287 87.0636 46.2595 86.767L41.4354 78.3726C41.4073 78.3176 41.3642 78.2718 41.3111 78.2405C41.258 78.2091 41.1971 78.1935 41.1354 78.1955H22.6411C21.6112 78.3039 20.6428 78.1919 19.7321 77.863L13.9396 67.8534C13.7682 67.557 13.6774 67.221 13.6762 66.8786C13.6749 66.5363 13.7632 66.1996 13.9323 65.902L18.2939 58.2412C18.3561 58.1328 18.3887 58.0101 18.3887 57.8852C18.3887 57.7603 18.3561 57.6376 18.2939 57.5293C16.022 53.5958 13.7634 49.6545 11.5184 45.7056L8.66371 40.6646C8.08554 39.5444 8.03856 38.8723 9.007 37.1775C10.6873 34.2396 12.3568 31.3054 14.0191 28.3747C14.496 27.5292 15.1176 27.1678 16.1294 27.1642C19.2479 27.1511 22.3665 27.1498 25.485 27.1606C25.5637 27.16 25.641 27.1386 25.7089 27.0986C25.7767 27.0587 25.8329 27.0015 25.8716 26.9329L36.0114 9.24434C36.165 8.97524 36.3869 8.7514 36.6546 8.59534C36.9223 8.43928 37.2264 8.35652 37.5363 8.35539C39.4298 8.35178 41.3414 8.35539 43.2566 8.33371L46.9316 8.2506C48.1639 8.23976 49.5479 8.36623 50.1839 9.47922ZM37.782 10.9355C37.7439 10.9355 37.7065 10.9455 37.6735 10.9645C37.6406 10.9835 37.6132 11.0109 37.5941 11.0439L27.2376 29.1661C27.1878 29.2515 27.1167 29.3225 27.0311 29.3719C26.9455 29.4213 26.8486 29.4476 26.7497 29.448H16.3932C16.1908 29.448 16.1402 29.5383 16.245 29.7154L37.24 66.4151C37.3303 66.5669 37.287 66.6392 37.1171 66.6428L27.0171 66.697C26.8695 66.6921 26.7234 66.7288 26.5956 66.8029C26.4678 66.877 26.3635 66.9856 26.2944 67.1162L21.5245 75.4636C21.3655 75.7455 21.4486 75.89 21.7702 75.89L42.4255 75.9189C42.5917 75.9189 42.7146 75.9912 42.8013 76.1394L47.8712 85.0071C48.0374 85.2998 48.2036 85.3034 48.3735 85.0071L66.4631 53.352L69.2925 48.358C69.3098 48.3271 69.335 48.3014 69.3654 48.2836C69.3959 48.2657 69.4306 48.2563 69.466 48.2563C69.5013 48.2563 69.536 48.2657 69.5665 48.2836C69.597 48.3014 69.6222 48.3271 69.6394 48.358L74.7852 57.5004C74.8238 57.5688 74.88 57.6256 74.948 57.665C75.016 57.7044 75.0933 57.7249 75.1718 57.7244L85.1562 57.6521C85.1818 57.6524 85.207 57.6458 85.2292 57.6331C85.2514 57.6204 85.2699 57.602 85.2827 57.5799C85.295 57.5578 85.3015 57.5329 85.3015 57.5076C85.3015 57.4823 85.295 57.4574 85.2827 57.4353L74.8033 39.0566C74.7655 38.9951 74.7456 38.9245 74.7456 38.8524C74.7456 38.7803 74.7655 38.7096 74.8033 38.6482L75.862 36.8161L79.9093 29.672C79.996 29.5239 79.9526 29.448 79.7828 29.448H37.8832C37.67 29.448 37.6194 29.354 37.7278 29.1697L42.9097 20.1177C42.9485 20.056 42.9691 19.9846 42.9691 19.9117C42.9691 19.8388 42.9485 19.7674 42.9097 19.7057L37.9735 11.0475C37.9547 11.0133 37.9269 10.9849 37.8932 10.9652C37.8595 10.9454 37.8211 10.9352 37.782 10.9355ZM60.5115 39.9166C60.6777 39.9166 60.7211 39.9889 60.6344 40.1334L57.6279 45.4273L48.1856 61.9957C48.1678 62.028 48.1416 62.0547 48.1098 62.0732C48.0779 62.0917 48.0417 62.1011 48.0049 62.1005C47.9682 62.1004 47.9323 62.0906 47.9005 62.0722C47.8688 62.0538 47.8425 62.0274 47.8242 61.9957L35.3465 40.1985C35.2742 40.0756 35.3103 40.0105 35.4476 40.0033L36.2282 39.96L60.5187 39.9166H60.5115Z" fill="white"/>
</svg>
