<svg width="96" height="96" viewBox="0 0 96 96" fill="none" xmlns="http://www.w3.org/2000/svg">
<path fill-rule="evenodd" clip-rule="evenodd" d="M63.982 77.9629C56.7028 78.6309 50.6537 70.1213 45.9901 65.8189C43.631 82.7807 18 81.1938 18 63.9703V32.0425C18 29.5313 18.6655 26.9684 19.9991 24.8172C22.4591 20.6646 27.2264 17.9463 32.0455 18.0008H63.982C81.2075 18.0008 82.8493 43.6248 65.8283 45.9287L73.9284 53.9748C82.7975 62.3289 76.132 78.32 63.9847 77.9601L63.982 77.9629ZM60.0874 67.8174C65.1111 72.9924 73.1074 64.9982 67.9311 59.9759L53.9347 45.9833H46.091V53.8248L58.1892 65.9197L60.0874 67.8174ZM26.5091 63.9212C26.4082 71.0974 37.7373 71.0974 37.5819 63.9212V31.9934C37.6855 28.4053 33.8919 25.586 30.4582 26.663C30.3028 26.7148 30.15 26.7639 30.0491 26.8157C27.8946 27.6364 26.4082 29.7876 26.4573 32.0943V63.9212H26.5091ZM63.982 37.5283C71.1602 37.6292 71.1602 26.3549 63.982 26.4585H44.9646C46.3992 29.4823 46.0419 34.2483 46.091 37.5283H63.982Z" fill="white"/>
</svg>
