<svg width="96" height="96" viewBox="0 0 96 96" fill="none" xmlns="http://www.w3.org/2000/svg">
<path d="M42.8655 9C48.3417 9 53.2996 11.2188 56.8893 14.8066C58.5281 14.3683 60.2505 14.1344 62.0276 14.1344C72.9838 14.1344 81.8656 23.0162 81.8656 33.9723C81.8656 35.7493 81.6316 37.4718 81.1933 39.1106C84.7811 42.7004 87 47.6582 87 53.1344C87 62.3136 80.7656 70.0365 72.3002 72.3003C70.0363 80.7656 62.3136 87 53.1344 87C47.6583 87 42.7004 84.781 39.1107 81.1933C37.4719 81.6316 35.7496 81.8656 33.9725 81.8656C23.0163 81.8656 14.1345 72.9837 14.1344 62.0275C14.1344 60.2504 14.3683 58.528 14.8066 56.8892C11.2189 53.2995 9 48.3416 9 42.8655C9 33.6864 15.2342 25.9635 23.6996 23.6997C25.9634 15.2343 33.6863 9 42.8655 9ZM42.4992 40.407C41.1289 35.2929 36.5925 32.0646 32.3683 33.1965C28.144 34.3284 25.8295 39.3924 27.1998 44.5065C27.222 44.5897 27.2453 44.6725 27.2696 44.755L27.2667 44.7557L28.6673 49.983C30.0376 55.0972 34.5741 58.3256 38.7983 57.1937C43.0225 56.0618 45.337 50.9978 43.9667 45.8836L42.5661 40.6562L42.563 40.657C42.5428 40.5734 42.5215 40.4901 42.4992 40.407ZM65.7959 34.6546C64.4255 29.5406 59.8892 26.3122 55.6649 27.444C51.4407 28.5758 49.1262 33.64 50.4965 38.7541C50.5187 38.8372 50.5419 38.9201 50.5661 39.0026L50.5632 39.0034L51.964 44.2308C53.3343 49.3449 57.8707 52.5732 62.0949 51.4414C66.3192 50.3094 68.6337 45.2454 67.2634 40.1313L65.8627 34.9039L65.8597 34.9047C65.8394 34.8211 65.8181 34.7378 65.7959 34.6546ZM37.0756 44.679C37.7357 44.502 38.4143 44.8939 38.5912 45.5539C38.768 46.214 38.3762 46.8924 37.7162 47.0693C37.0561 47.2461 36.3777 46.8544 36.2008 46.1944C36.024 45.5344 36.4157 44.8558 37.0756 44.679ZM31.5789 36.9639C32.1492 37.853 32.9242 38.5926 33.839 39.1208C34.7538 39.6489 35.7818 39.9503 36.8369 39.9997C35.9478 40.57 35.2083 41.3449 34.6801 42.2597C34.152 43.1745 33.8506 44.2024 33.8013 45.2576C33.231 44.3685 32.456 43.6289 31.5412 43.1008C30.6264 42.5726 29.5984 42.2713 28.5433 42.2219C29.4324 41.6516 30.1719 40.8766 30.7001 39.9618C31.2282 39.047 31.5296 38.019 31.5789 36.9639ZM60.3724 38.9265C61.0324 38.7497 61.711 39.1414 61.8879 39.8015C62.0646 40.4616 61.6728 41.1401 61.0128 41.3169C60.3528 41.4938 59.6743 41.1021 59.4974 40.442C59.3204 39.782 59.7123 39.1034 60.3724 38.9265ZM54.8757 31.2116C55.446 32.1007 56.2209 32.8403 57.1357 33.3684C58.0505 33.8966 59.0785 34.1979 60.1336 34.2473C59.2445 34.8177 58.505 35.5926 57.9769 36.5074C57.4488 37.4222 57.1474 38.4501 57.0979 39.5052C56.5276 38.6161 55.7527 37.8766 54.8379 37.3484C53.9231 36.8203 52.8951 36.5189 51.84 36.4696C52.7291 35.8993 53.4687 35.1243 53.9968 34.2095C54.525 33.2947 54.8263 32.2668 54.8757 31.2116Z" fill="white"/>
</svg>
