<svg width="96" height="96" viewBox="0 0 96 96" fill="none" xmlns="http://www.w3.org/2000/svg">
<path d="M80.2742 80.502C85.8473 80.502 89.9962 76.4706 89.9962 71.0175C89.9962 65.4443 85.9649 61.533 80.2742 61.533C74.7034 61.533 70.6709 65.4443 70.6709 71.0175C70.6709 76.5882 74.7022 80.502 80.2742 80.502Z" fill="white"/>
<path d="M33.3283 81.2125C48.9953 81.2125 59.0594 73.3149 59.0594 60.8324C59.0594 51.1519 52.8176 44.4005 41.7355 41.8527L34.9853 40.197L33.9994 39.9689C28.4216 38.635 25.6861 37.1538 25.6861 32.9372C25.6861 29.2432 28.6163 27.2049 33.5837 27.2049C49.3753 27.2049 55.0993 32.9372 55.0993 32.9372V20.5188L54.8962 20.3193C53.7535 19.2598 47.6863 14.34 33.4566 14.34C18.4263 14.34 9 21.981 9 33.9539C9 43.4622 15.1432 50.0212 26.223 52.7863L33.2012 54.4611C39.0606 55.8627 41.9909 57.3914 41.9909 61.8492C41.9909 65.9257 38.8064 68.2181 33.2012 68.2181C17.0568 68.2193 9 59.5936 9 59.5936V74.4861L9.20668 74.7046C10.3719 75.8615 16.6612 81.2125 33.3283 81.2125Z" fill="white"/>
</svg>
