<svg width="96" height="96" viewBox="0 0 96 96" fill="none" xmlns="http://www.w3.org/2000/svg">
<path fill-rule="evenodd" clip-rule="evenodd" d="M39.0191 13.8114C43.1997 6.02892 54.1379 6.08842 58.2376 13.916L61.8468 20.8069L70.0514 19.922C78.3138 19.0308 84.4907 27.5298 81.287 35.3815L78.2623 42.7943L84.7483 48.9267C90.4332 54.3016 88.3154 63.9632 80.933 66.3331L72.4575 69.0538L72.0041 78.0922C71.6079 85.9915 63.0304 90.5077 56.5282 86.2405L48.0747 80.6927L39.3661 86.3662C32.8867 90.5874 24.365 86.1175 23.9219 78.2653L23.4 69.0181L15.1208 66.4128C7.59175 64.0436 5.51999 54.1325 11.4419 48.8134L17.8669 43.0426L14.7968 35.1242C11.7668 27.309 17.9111 18.988 26.0778 19.8468L35.2584 20.8123L39.0191 13.8114ZM32.9681 25.0757L25.631 24.3041C20.731 23.7888 17.0444 28.7813 18.8624 33.4705L21.3579 39.9069L24.0634 37.4768C26.931 34.9012 29.3382 31.8331 31.1768 28.4104L32.9681 25.0757ZM23.0716 44.327L26.9476 40.8456C30.1975 37.9266 32.9256 34.4494 35.0094 30.5704L37.6941 25.5727L44.8545 26.3257C47.4118 26.5946 49.9895 26.5912 52.5461 26.3154L59.3816 25.5782L62.0953 30.7595C64.0509 34.4933 66.6011 37.8666 69.6408 40.7406L73.0456 43.9598L71.3109 48.2111C69.6601 52.2568 68.7038 56.5641 68.4842 60.9431L68.245 65.7105L62.4381 67.5746C59.3255 68.5738 56.3549 69.9881 53.6026 71.7812L48.0833 75.3769L42.7651 71.8867C39.9247 70.0226 36.8498 68.5631 33.6251 67.5484L27.5917 65.6498L27.2999 60.4804C27.0704 56.4124 26.2049 52.4086 24.7367 48.6215L23.0716 44.327ZM19.5806 47.4627L14.3261 52.1823C10.9789 55.1887 12.1499 60.7906 16.4055 62.1297L23.1307 64.246L22.9328 60.7389C22.7302 57.1496 21.9666 53.6168 20.671 50.2753L19.5806 47.4627ZM27.861 70.4219L28.289 78.0067C28.5395 82.445 33.3561 84.9714 37.0184 82.5855L44.0141 78.0279L40.4051 75.6594C37.8989 74.0146 35.1858 72.7268 32.3404 71.8314L27.861 70.4219ZM52.1438 78.0417L58.8882 82.4678C62.5633 84.8797 67.4114 82.3271 67.6354 77.8623L68.0056 70.4829L63.7463 71.8502C60.9999 72.7318 58.3788 73.9798 55.9503 75.5619L52.1438 78.0417ZM72.6969 64.2814L79.6247 62.0575C83.7974 60.718 84.9944 55.2571 81.7812 52.2191L76.4669 47.1945L75.3471 49.9389C73.8905 53.5086 73.0467 57.3092 72.8529 61.173L72.6969 64.2814ZM74.841 39.5596L77.2508 33.6537C79.1731 28.9427 75.4669 23.8433 70.5095 24.378L64.0803 25.0714L65.9501 28.6414C67.6756 31.9359 69.9258 34.9123 72.6079 37.4482L74.841 39.5596ZM57.148 21.3137L52.088 21.8594C49.8321 22.1027 47.5578 22.1058 45.3013 21.8685L39.9843 21.3093L42.8517 15.9714C45.3601 11.3019 51.923 11.3376 54.3829 16.0341L57.148 21.3137Z" fill="black"/>
</svg>
