<svg width="96" height="96" viewBox="0 0 96 96" fill="none" xmlns="http://www.w3.org/2000/svg">
<path d="M45.9452 61.7398L42.7529 69.0559C41.5256 71.8683 37.6367 71.8683 36.4094 69.0559L33.2171 61.7398C30.3755 55.2288 25.2621 50.0455 18.8833 47.2132L10.0955 43.3106C7.30151 42.0698 7.30151 38.0033 10.0955 36.7625L18.6079 32.981C25.1506 30.0753 30.3564 24.7004 33.1485 17.9674L36.3827 10.17C37.5824 7.27667 41.578 7.27667 42.7787 10.17L46.0129 17.9674C48.8049 24.7004 54.0107 30.0753 60.5535 32.981L69.0668 36.7625C71.8608 38.0033 71.8608 42.0698 69.0668 43.3106L60.279 47.2141C53.8992 50.0455 48.7859 55.2288 45.9452 61.7398Z" fill="url(#paint0_radial_10019_755)"/>
<path d="M75.6132 84.8098L74.7156 86.8692C74.058 88.3769 71.9721 88.3769 71.3155 86.8692L70.4179 84.8098C68.8179 81.1388 65.9344 78.2159 62.3381 76.6168L59.5718 75.3874C58.0757 74.7222 58.0757 72.5465 59.5718 71.8823L62.1837 70.7215C65.8734 69.0814 68.8075 66.0499 70.3807 62.2541L71.3022 60.0289C71.9445 58.4783 74.0876 58.4783 74.7298 60.0289L75.6523 62.2541C77.2255 66.0499 80.1596 69.0814 83.8493 70.7215L86.4612 71.8823C87.9573 72.5475 87.9573 74.7232 86.4612 75.3874L83.6949 76.6168C80.0957 78.215 77.2132 81.1388 75.6132 84.8098Z" fill="url(#paint1_radial_10019_755)"/>
<defs>
<radialGradient id="paint0_radial_10019_755" cx="0" cy="0" r="1" gradientTransform="matrix(9.52918 48.4125 48.4083 -9.53001 57.4524 43.0763)" gradientUnits="userSpaceOnUse">
<stop stop-color="#1BA1E3"/>
<stop offset="0.3002" stop-color="#5489D6"/>
<stop offset="0.5455" stop-color="#9B72CB"/>
<stop offset="0.8254" stop-color="#D96570"/>
<stop offset="1" stop-color="#F49C46"/>
</radialGradient>
<radialGradient id="paint1_radial_10019_755" cx="0" cy="0" r="1" gradientTransform="matrix(9.52918 48.4125 48.4083 -9.53001 57.4522 43.076)" gradientUnits="userSpaceOnUse">
<stop stop-color="#1BA1E3"/>
<stop offset="0.3002" stop-color="#5489D6"/>
<stop offset="0.5455" stop-color="#9B72CB"/>
<stop offset="0.8254" stop-color="#D96570"/>
<stop offset="1" stop-color="#F49C46"/>
</radialGradient>
</defs>
</svg>
