<svg width="96" height="96" viewBox="0 0 96 96" fill="none" xmlns="http://www.w3.org/2000/svg">
<path d="M80.7007 48.0001C80.7007 29.9402 66.0601 15.2997 48.0002 15.2997C29.9403 15.2997 15.2998 29.9402 15.2998 48.0001C15.2998 66.06 29.9404 80.7006 48.0002 80.7006C66.0601 80.7005 80.7006 66.06 80.7007 48.0001ZM31.8071 34.7982C33.4077 33.8433 35.4794 34.3667 36.4346 35.9672L42.5833 46.2709C43.2187 47.3361 43.2188 48.6642 42.5833 49.7294L36.4346 60.0331C35.4793 61.6335 33.4077 62.1564 31.8071 61.2013C30.2065 60.2462 29.6831 58.1745 30.6382 56.5739L35.7542 48.0001L30.6382 39.4264C29.683 37.8257 30.2065 35.7534 31.8071 34.7982ZM64.3772 54.9281C66.241 54.9282 67.7521 56.4393 67.7522 58.3031C67.7522 60.167 66.2411 61.678 64.3772 61.6781H52.3508C50.4869 61.6781 48.9758 60.1671 48.9758 58.3031C48.9759 56.4392 50.4869 54.9281 52.3508 54.9281H64.3772ZM87.4507 48.0001C87.4506 69.7879 69.788 87.4505 48.0002 87.4506C26.2124 87.4506 8.54985 69.7879 8.5498 48.0001C8.5498 26.2123 26.2124 8.54968 48.0002 8.54968C69.788 8.54973 87.4507 26.2123 87.4507 48.0001Z" fill="black"/>
</svg>
