<svg width="96" height="96" viewBox="0 0 96 96" fill="none" xmlns="http://www.w3.org/2000/svg">
<path fill-rule="evenodd" clip-rule="evenodd" d="M47.7436 15.2842C64.4792 15.2842 78.4699 29.2749 78.4699 46.0105C78.4699 49.277 77.9369 52.4389 76.9546 55.4127C77.7728 56.7421 78.5032 58.1275 79.1371 59.5597C80.9796 55.386 82.0068 50.799 82.0068 46.0105C82.0068 27.5578 66.3775 11.7473 47.7436 11.7473C29.2909 11.7473 13.4805 27.3764 13.4805 46.0105C13.4805 50.7957 14.5062 55.3797 16.3463 59.551C16.9807 58.1178 17.7117 56.7329 18.5301 55.4048C17.5494 52.4334 17.0173 49.2741 17.0173 46.0105C17.0173 29.2749 31.008 15.2842 47.7436 15.2842ZM43.5291 76.4385C42.5112 77.5016 41.3483 78.544 40.0852 79.3825C42.5542 79.965 45.1186 80.2736 47.7436 80.2736C50.3825 80.2736 52.9602 79.9617 55.4412 79.3733C54.1828 78.5249 53.0232 77.4863 52.0063 76.4317C50.6107 76.6327 49.1874 76.7368 47.7436 76.7368C46.3165 76.7368 44.9093 76.635 43.5291 76.4385Z" fill="black"/>
<path opacity="0.5" d="M47.5225 58.8669C56.2143 58.8669 59.0173 51.1212 59.0173 47.1423C59.0173 45.0732 57.629 45.7275 55.4008 46.824C53.3406 47.8408 50.573 49.2467 47.5314 49.2467C41.1739 49.2467 36.0366 43.1633 36.0366 47.1423C36.0366 51.1212 38.8307 58.8669 47.5314 58.8669H47.5225Z" fill="black"/>
<path fill-rule="evenodd" clip-rule="evenodd" d="M40.8645 56.842C41.331 55.8939 41.9879 55.0521 42.7942 54.369C43.6005 53.6859 44.5389 53.1763 45.5508 52.8719C45.9045 52.7658 46.267 53.3759 46.6472 54.0037C47.0009 54.605 47.3723 55.2151 47.7436 55.2151C48.1415 55.2151 48.5394 54.6138 48.9196 54.0214C49.3175 53.4025 49.7066 52.8012 50.0868 52.9161C51.9863 53.5192 53.5736 54.843 54.5078 56.6033C57.8059 54.0037 59.0173 49.7595 59.0173 47.1423C59.0173 45.0732 57.6291 45.7275 55.4009 46.8239L55.2771 46.8858C53.2346 47.9027 50.5112 49.2467 47.5226 49.2467C44.5339 49.2467 41.8194 47.9027 39.768 46.8858C37.4691 45.7452 36.0278 45.029 36.0278 47.1423C36.0278 49.8391 37.3188 54.269 40.8645 56.842Z" fill="black"/>
<path d="M57.7264 37.6548C58.8582 38.0439 59.3003 40.3605 60.4409 39.7592C61.2133 39.3492 61.8467 38.7193 62.261 37.9492C62.6754 37.1791 62.8521 36.3035 62.7687 35.433C62.6853 34.5625 62.3457 33.7363 61.7928 33.0588C61.2398 32.3814 60.4984 31.8831 59.6622 31.6271C58.8261 31.3711 57.9328 31.3687 57.0953 31.6204C56.2579 31.8721 55.5138 32.3665 54.9574 33.0411C54.4009 33.7156 54.057 34.5401 53.9691 35.4101C53.8812 36.2801 54.0533 37.1567 54.4637 37.9289C55.003 38.9458 56.7184 37.2923 57.7352 37.646L57.7264 37.6548ZM36.9032 37.6548C35.7715 38.0439 35.3205 40.3605 34.1887 39.7592C33.4164 39.3492 32.783 38.7193 32.3686 37.9492C31.9543 37.1791 31.7776 36.3035 31.861 35.433C31.9443 34.5625 32.2839 33.7363 32.8369 33.0588C33.3898 32.3814 34.1313 31.8831 34.9674 31.6271C35.8036 31.3711 36.6969 31.3687 37.5343 31.6204C38.3718 31.8721 39.1158 32.3665 39.6723 33.0411C40.2287 33.7156 40.5727 34.5401 40.6605 35.4101C40.7484 36.2801 40.5763 37.1567 40.166 37.9289C39.6266 38.9458 37.9024 37.2923 36.8944 37.646L36.9032 37.6548Z" fill="black"/>
<path d="M68.5224 41.8104C69.2845 41.8104 70.0155 41.5076 70.5544 40.9687C71.0933 40.4298 71.3961 39.6988 71.3961 38.9367C71.3961 38.1745 71.0933 37.4436 70.5544 36.9047C70.0155 36.3658 69.2845 36.063 68.5224 36.063C67.7603 36.063 67.0293 36.3658 66.4904 36.9047C65.9515 37.4436 65.6487 38.1745 65.6487 38.9367C65.6487 39.6988 65.9515 40.4298 66.4904 40.9687C67.0293 41.5076 67.7603 41.8104 68.5224 41.8104ZM27.4066 41.8104C28.1688 41.8104 28.8997 41.5076 29.4386 40.9687C29.9775 40.4298 30.2803 39.6988 30.2803 38.9367C30.2803 38.1745 29.9775 37.4436 29.4386 36.9047C28.8997 36.3658 28.1688 36.063 27.4066 36.063C26.6445 36.063 25.9135 36.3658 25.3746 36.9047C24.8357 37.4436 24.5329 38.1745 24.5329 38.9367C24.5329 39.6988 24.8357 40.4298 25.3746 40.9687C25.9135 41.5076 26.6445 41.8104 27.4066 41.8104ZM21.4912 51.5367C20.0588 51.5367 18.7856 52.1203 17.8925 53.1901C17.131 54.1308 16.7158 55.3045 16.7165 56.5148C16.1598 56.3474 15.5825 56.2581 15.0011 56.2495C13.6306 56.2495 12.3927 56.7712 11.5173 57.7173C10.7364 58.5283 10.244 59.5737 10.1162 60.6923C9.98831 61.8109 10.2321 62.9405 10.81 63.9068C10.0274 64.5456 9.47228 65.4202 9.22724 66.4002C9.01503 67.196 8.80282 68.876 9.93461 70.5914C9.51033 71.2437 9.25786 71.9927 9.20066 72.7687C9.14346 73.5448 9.2834 74.3227 9.60745 75.0301C10.5093 77.0815 12.7641 78.6908 17.1409 80.4238C19.8555 81.5026 22.3489 82.1923 22.3666 82.2011C25.5165 83.0738 28.7632 83.549 32.031 83.6158C37.2125 83.6158 40.9173 82.0243 43.0483 78.8941C46.479 73.863 45.9927 69.2563 41.5451 64.8175C39.0959 62.3594 37.4601 58.743 37.1241 57.9472C36.4344 55.5952 34.6129 52.9779 31.5978 52.9779C30.7956 52.9906 30.0081 53.1946 29.3007 53.5729C28.5932 53.9512 27.9863 54.493 27.5304 55.1531C26.6462 54.039 25.7797 53.1636 25.0016 52.6596C23.9632 51.9567 22.7448 51.5669 21.4912 51.5367ZM21.4912 55.0735C21.9422 55.0735 22.4992 55.268 23.1005 55.6483C24.9927 56.8508 28.6268 63.1021 29.962 65.5337C30.4041 66.3472 31.1733 66.692 31.8542 66.692C33.2247 66.692 34.2858 65.3392 31.9868 63.615C28.5207 61.0243 29.7321 56.7889 31.3856 56.5325C31.4563 56.5148 31.5359 56.5148 31.5978 56.5148C33.1009 56.5148 33.7641 59.1055 33.7641 59.1055C33.7641 59.1055 35.7093 63.9864 39.0517 67.3287C42.3851 70.6621 42.562 73.3413 40.1304 76.9047C38.4681 79.3363 35.2938 80.0701 32.031 80.0701C28.6622 80.0701 25.1961 79.2744 23.2597 78.7792C23.1624 78.7527 11.367 75.4192 12.8613 72.5897C13.1089 72.1122 13.5245 71.9177 14.0462 71.9177C16.1506 71.9177 19.9704 75.0478 21.6239 75.0478C21.9864 75.0478 22.2428 74.8975 22.3578 74.5173C23.0563 71.9973 11.6942 70.9363 12.6491 67.2933C12.826 66.6478 13.2769 66.3914 13.9224 66.3914C16.6988 66.3914 22.9413 71.2811 24.25 71.2811C24.3472 71.2811 24.4268 71.2546 24.4622 71.1927C25.1165 70.1316 24.754 69.3889 20.1296 66.5948C15.5228 63.8007 12.2778 62.1207 14.1169 60.1135C14.3291 59.8836 14.6298 59.7775 15.0011 59.7775C17.8041 59.7775 24.4268 65.8078 24.4268 65.8078C24.4268 65.8078 26.2129 67.6647 27.3005 67.6647C27.5481 67.6647 27.7603 67.5763 27.9018 67.3287C28.6622 66.0377 20.775 60.0605 20.3329 57.5935C20.0323 55.9135 20.5451 55.0735 21.4912 55.0735Z" fill="black"/>
<path d="M74.4378 51.5369C75.8702 51.5369 77.1523 52.1204 78.0366 53.1903C78.7981 54.131 79.2133 55.3047 79.2126 56.515C79.7721 56.3467 80.3525 56.2575 80.9368 56.2497C82.3073 56.2497 83.5452 56.7714 84.4206 57.7175C85.2015 58.5285 85.6939 59.5739 85.8217 60.6925C85.9496 61.8111 85.7058 62.9407 85.1279 63.907C85.9072 64.5471 86.4591 65.4216 86.7018 66.4004C86.914 67.1962 87.1262 68.8762 85.9944 70.5916C86.4187 71.2439 86.6712 71.9929 86.7284 72.7689C86.7856 73.545 86.6457 74.3229 86.3216 75.0303C85.4197 77.0817 83.165 78.691 78.797 80.424C76.0736 81.5028 73.5801 82.1924 73.5624 82.2013C70.4126 83.074 67.1659 83.5492 63.898 83.616C58.7166 83.616 55.0117 82.0244 52.8808 78.8943C49.45 73.8632 49.9363 69.2564 54.3839 64.8177C56.842 62.3596 58.4778 58.7432 58.8138 57.9474C59.5035 55.5954 61.3161 52.9781 64.3313 52.9781C65.1334 52.9908 65.921 53.1948 66.6284 53.5731C67.3358 53.9514 67.9427 54.4932 68.3987 55.1533C69.2829 54.0392 70.1494 53.1638 70.9363 52.6598C71.9722 51.9585 73.1873 51.5688 74.4378 51.5369ZM74.4378 55.0737C73.9869 55.0737 73.4387 55.2682 72.8286 55.6484C70.9452 56.851 67.3022 63.1023 65.9671 65.5339C65.7869 65.8809 65.5155 66.1721 65.182 66.3762C64.8486 66.5803 64.4658 66.6896 64.0749 66.6922C62.7132 66.6922 61.6433 65.3394 63.9511 63.6152C67.4083 61.0244 66.197 56.7891 64.5435 56.5327C64.4733 56.5212 64.4024 56.5153 64.3313 56.515C62.8281 56.515 62.165 59.1057 62.165 59.1057C62.165 59.1057 60.2197 63.9866 56.8862 67.3289C53.5439 70.6623 53.3671 73.3415 55.8075 76.9049C57.461 79.3364 60.6441 80.0703 63.898 80.0703C67.2757 80.0703 70.733 79.2745 72.6782 78.7794C72.7667 78.7529 84.5709 75.4194 83.0765 72.5899C82.8201 72.1124 82.4134 71.9179 81.8917 71.9179C79.7873 71.9179 75.9587 75.048 74.314 75.048C73.9427 75.048 73.6862 74.8977 73.5801 74.5175C72.8728 71.9975 84.2349 70.9364 83.2799 67.2935C83.1119 66.648 82.661 66.3916 82.0067 66.3916C79.2302 66.3916 72.9877 71.2813 71.6791 71.2813C71.5907 71.2813 71.5111 71.2548 71.4757 71.1929C70.8214 70.1318 71.1751 69.3891 75.7907 66.595C80.4151 63.8009 83.6601 62.1209 81.8033 60.1137C81.5999 59.8838 81.2993 59.7777 80.9368 59.7777C78.125 59.7777 71.5022 65.808 71.5022 65.808C71.5022 65.808 69.7161 67.6649 68.6374 67.6649C68.5158 67.6703 68.3952 67.6417 68.289 67.5824C68.1828 67.523 68.0952 67.4352 68.0361 67.3289C67.2669 66.0379 75.154 60.0607 75.5961 57.5937C75.8968 55.9137 75.3839 55.0737 74.4378 55.0737Z" fill="black"/>
</svg>
