<svg width="96" height="96" viewBox="0 0 96 96" fill="none" xmlns="http://www.w3.org/2000/svg">
<path d="M74.1829 18.5777L48.434 45.6974C48.0449 46.0955 48.1037 46.869 48.538 47.1721L69.6275 62.8558C71.6587 64.2627 74.3412 65.2443 76.7478 65.76C77.0586 65.8221 77.3386 65.989 77.5411 66.2327C77.7437 66.4764 77.8565 66.7822 77.8607 67.099V78.06C77.8642 78.246 77.827 78.4305 77.7516 78.6006C77.6763 78.7706 77.5647 78.9222 77.4246 79.0446C77.2846 79.167 77.1194 79.2573 76.9408 79.3091C76.7621 79.361 76.5743 79.3731 76.3905 79.3447C72.2332 78.6662 67.7004 77.0557 64.1357 74.5858L39.7756 56.1743C39.5313 56.0069 39.2282 56.0386 39.0065 56.2648L29.9003 65.5474C29.7288 65.7365 29.6365 65.9843 29.6425 66.2395V78.3359C29.6425 78.6887 29.5023 79.0269 29.2529 79.2764C29.0035 79.5258 28.6652 79.6659 28.3125 79.6659H19.4686C18.7358 79.6659 18.1387 79.0733 18.1387 78.3359V17.664C18.1387 17.4893 18.1731 17.3164 18.2399 17.155C18.3067 16.9936 18.4047 16.847 18.5282 16.7235C18.6517 16.6 18.7983 16.5021 18.9597 16.4352C19.121 16.3684 19.294 16.334 19.4686 16.334H28.3125C28.6652 16.334 29.0035 16.4741 29.2529 16.7235C29.5023 16.9729 29.6425 17.3112 29.6425 17.664V45.7698C29.6425 46.5116 30.321 46.9233 30.7779 46.4619L60.2906 16.7275C60.5411 16.479 60.8786 16.3378 61.2315 16.334H73.2194C73.479 16.3345 73.7328 16.4111 73.9495 16.5541C74.1661 16.6972 74.3362 16.9006 74.4386 17.1392C74.5411 17.3777 74.5714 17.6411 74.526 17.8967C74.4806 18.1523 74.3613 18.3891 74.1829 18.5777Z" fill="black"/>
</svg>
