<svg width="96" height="96" viewBox="0 0 96 96" fill="none" xmlns="http://www.w3.org/2000/svg">
<path fill-rule="evenodd" clip-rule="evenodd" d="M57.0652 23.5797C58.9455 23.4357 60.9512 23.6285 62.6441 24.5187C66.1919 26.3844 67.1765 29.67 67.4378 31.3903C67.5757 32.298 67.5687 33.081 67.5359 33.6198C67.5083 34.0805 67.4415 34.5334 67.3594 34.9872L66.2615 39.3437C66.05 40.4138 66.0222 41.0261 66.0337 41.3498C66.0429 41.6119 66.0769 41.699 66.0938 41.7416L66.096 41.7467C66.1388 41.8564 66.2506 42.094 66.6563 42.7091C66.8214 42.9597 66.9932 43.2115 67.2122 43.5316C67.2702 43.6164 67.332 43.7064 67.3975 43.8019C67.6918 44.2334 68.0366 44.7421 68.4017 45.3107C70.6827 48.8657 70.9068 52.2784 70.8948 54.4652C70.8948 54.497 70.8945 54.5291 70.8941 54.5604C71.1667 54.654 71.4561 54.7489 71.7635 54.8468C71.8651 54.8792 72.0002 54.9211 72.1414 54.9655L72.2476 54.9992C72.4127 55.0514 72.578 55.1036 72.7024 55.1435C72.9824 55.2331 73.3355 55.35 73.6824 55.4774C74.0835 54.7339 75.1723 53.1425 77.1431 53.1425C79.7142 53.143 80.7679 56.7599 80.7679 56.7599C81.7789 63.497 77.1824 86.119 70.5337 90.3371C65.4571 93.5582 61.694 88.7712 58.9 81.4074C58.2751 81.2749 57.5959 81.1294 56.8968 80.9774C54.3312 80.4202 50.8533 79.641 49.2129 79.0966L49.0943 79.057L48.9771 79.0138C48.2495 78.7439 47.0195 78.4407 44.9825 77.976C44.8594 77.948 44.7335 77.9195 44.606 77.8903L44.598 77.8888C42.8414 77.4891 40.6813 76.9973 38.636 76.3778C36.5145 75.7354 33.89 74.7797 31.6619 73.2226C29.3233 71.5885 26.6647 68.7059 26.5167 64.383C26.4945 63.7365 26.5096 63.1108 26.5496 62.5175C25.4966 61.3764 24.6123 59.8838 24.1656 57.9728C23.7305 56.1114 23.9709 54.4605 24.2762 53.3021C24.5823 52.1407 25.0477 51.1253 25.4363 50.3666C25.5674 50.1107 25.7035 49.8576 25.8392 49.6137C24.5536 49.2081 23.1017 48.7065 21.6885 48.1041C19.8428 47.3174 17.224 46.0196 15.2689 43.9242C14.2159 42.7958 13.1131 41.1778 12.6673 39.0631C12.2009 36.8502 12.588 34.7266 13.4964 32.9086C15.7079 28.4829 19.9325 26.9186 23.6895 26.7833C27.082 26.6612 30.692 27.611 33.9266 28.7455C36.8736 29.7791 41.0917 31.7013 44.6749 33.3759C45.8552 31.4406 47.411 29.2534 48.8841 27.4872L49.1763 27.1364L49.5154 26.8288C52.0494 24.5224 54.8961 23.746 57.0652 23.5797ZM59.4273 30.4748C59.4127 30.4707 56.6842 29.7227 54.3377 31.7938C54.3142 31.8147 54.2902 31.8361 54.2667 31.8576C54.1939 31.945 54.1208 32.0339 54.0477 32.1234C53.9426 32.2522 53.8363 32.3828 53.7313 32.5153C53.7053 32.5477 53.6793 32.5807 53.6536 32.6134L53.6382 32.6332C51.2901 35.612 51.4292 36.857 47.1431 42.0001C47.1147 41.987 44.9025 40.9618 43.5755 40.3383C42.6592 39.9075 41.6907 39.4524 40.7037 38.9936C37.5199 37.5131 34.1437 35.9952 31.7147 35.1432C25.7344 33.0458 21.3256 32.7796 19.7161 36.0001C17.5934 40.2485 26.2118 42.7103 30.5442 43.9477H30.5457C30.5755 43.9561 30.605 43.9649 30.6343 43.9733C32.3898 43.0118 34.5592 42.3799 36.8277 42.1254C40.2846 41.7378 44.3843 42.1695 48.5325 44.007C53.3739 46.1517 55.9669 50.6736 56.9466 54.8058C57.4437 56.9032 57.5704 59.0591 57.3157 61.0233C57.0685 62.9304 56.4177 64.9704 55.0635 66.5224C52.2423 69.756 48.0811 69.3913 45.8299 68.9137C44.5617 68.6449 43.443 68.2498 42.6563 67.9323C42.2571 67.7715 41.9291 67.6248 41.6939 67.5148C41.5761 67.4597 41.4804 67.413 41.4097 67.3778C41.3747 67.3603 41.3453 67.3462 41.3226 67.3346L41.294 67.32L41.283 67.3141L41.2764 67.3104C39.5968 66.436 38.9423 64.3644 39.8167 62.6852C40.6894 61.0091 42.7538 60.3559 44.4317 61.2226C44.4881 61.2503 44.5447 61.2778 44.6016 61.3046C44.74 61.3694 44.9533 61.4654 45.2212 61.5734C45.7688 61.7942 46.4923 62.0446 47.2537 62.2062C49.0619 62.5897 49.7119 62.2259 49.8963 62.0143C50.0452 61.8435 50.3688 61.2753 50.5159 60.1422C50.6555 59.0659 50.5962 57.7458 50.2742 56.3871C49.615 53.6065 48.0371 51.2873 45.7552 50.2765C42.7806 48.9591 39.9101 48.6803 37.5916 48.9398C35.1494 49.2138 33.8628 50.1369 33.4285 50.5709C31.7145 52.2851 30.8572 53.9998 30.857 54.8571C30.857 54.9288 30.8429 54.9594 30.8167 54.9567C30.754 55.5435 30.7929 56.0946 30.9046 56.5724C31.0684 57.2733 31.3924 57.7834 31.7776 58.1537C32.8051 59.1422 34.2677 59.1432 34.2862 59.1432C34.2732 59.1766 33.3363 61.5917 33.4285 64.2863C33.449 64.8832 33.6096 65.427 33.8863 65.924C35.5296 68.8743 41.2676 70.1819 46.0892 71.2802H46.0914C48.1169 71.7418 49.9802 72.1665 51.3106 72.6601C52.5911 73.0851 55.9901 73.8509 58.8633 74.4699C60.5034 74.6837 62.8232 74.7303 65.1431 73.9066C69.3033 72.429 70.0758 66.7211 71.6207 61.9323C71.5547 61.9068 71.4831 61.8792 71.4053 61.8502C71.0908 61.7333 70.6692 61.6009 70.1873 61.4489L70.1844 61.4474L70.1822 61.4467C68.1709 60.8123 65.1055 59.8454 64.2862 58.2855C63.8884 57.5284 63.9191 56.5118 63.9559 55.3236V55.3207C64.0127 53.4733 64.0822 51.2101 62.5723 48.8571C62.2021 48.28 61.8463 47.76 61.514 47.2743L61.5125 47.2721C59.6183 44.5028 58.4688 42.8218 59.5071 37.744L60.5948 33.4286C60.6012 33.3935 60.9793 31.3056 59.4273 30.4748Z" fill="black"/>
<path d="M14.9239 13.5133C15.7578 11.8134 17.8125 11.1113 19.5125 11.9452C22.2143 13.2706 25.2914 14.9254 28.2811 18.296C29.5374 19.7127 29.4076 21.8794 27.991 23.1359C26.5744 24.3923 24.4076 24.2624 23.1512 22.8458C21.0532 20.4805 18.9338 19.2997 16.492 18.102C14.7921 17.268 14.09 15.2133 14.9239 13.5133Z" fill="black"/>
<path d="M48.9852 7.18154C49.7525 5.91706 51.4002 5.51363 52.6648 6.28066C53.9294 7.04797 54.3321 8.69564 53.565 9.96035C52.2096 12.1946 51.4312 14.4654 50.5994 17.7921C50.2406 19.2273 48.7863 20.0999 47.3511 19.7411C45.9161 19.3822 45.0434 17.9279 45.4022 16.4928C46.2847 12.9628 47.2207 10.0899 48.9852 7.18154Z" fill="black"/>
<path d="M33.4542 3.53042C35.2911 3.07118 37.1528 4.18809 37.6121 6.02505C37.8513 6.98176 38.1075 7.92588 38.3636 8.86831C38.9418 10.9966 39.5177 13.1172 39.8877 15.3583C40.1963 17.2265 38.9318 18.9911 37.0635 19.2995C35.1953 19.6079 33.4308 18.3435 33.1224 16.4752C32.8094 14.5791 32.3781 12.9963 31.8538 11.0736C31.5799 10.0691 31.2804 8.97174 30.9595 7.68838C30.5003 5.85134 31.6172 3.98967 33.4542 3.53042Z" fill="black"/>
</svg>
