<svg width="96" height="96" viewBox="0 0 96 96" fill="none" xmlns="http://www.w3.org/2000/svg">
<path d="M30.9904 21H30.9104L30.8071 29.7167H30.8804C36.5971 29.7167 41.0337 34.24 50.6804 50.5367L51.2637 51.5267L51.3037 51.5933L56.7037 43.4667L56.6637 43.4033C55.4837 41.4714 54.2634 39.5643 53.0037 37.6833C51.7635 35.8271 50.4571 34.0159 49.0871 32.2533C42.7104 24.1067 37.3771 21 30.9904 21Z" fill="url(#paint0_linear_10022_718)"/>
<path d="M30.9104 21C24.5004 21.0333 18.8237 25.1933 14.7337 31.5667C14.7226 31.5855 14.7115 31.6044 14.7004 31.6233L22.2137 35.7267L22.2504 35.67C24.6437 32.06 27.6171 29.7567 30.8104 29.72H30.8804L30.9871 21H30.9104Z" fill="url(#paint1_linear_10022_718)"/>
<path d="M14.7304 31.5667L14.6937 31.6233C12.0004 35.8233 9.99374 40.9833 8.91374 46.5467L8.89708 46.62L17.3437 48.62L17.3571 48.5467C18.2571 43.6567 19.9771 39.12 22.2104 35.73L22.2471 35.6733L14.7304 31.5667Z" fill="url(#paint2_linear_10022_718)"/>
<path d="M17.3571 48.5467L8.91374 46.5467L8.89708 46.62C8.30708 49.68 8.00708 52.79 8.00041 55.9067V55.9833L16.6604 56.76V56.6833C16.6289 53.9559 16.8633 51.2319 17.3604 48.55L17.3571 48.5467Z" fill="url(#paint3_linear_10022_718)"/>
<path d="M16.9237 59.4567C16.7684 58.5612 16.6804 57.6553 16.6604 56.7467V56.6733L8.00041 55.8933V55.9733C7.99069 57.82 8.15362 59.6636 8.48708 61.48L16.9371 59.53C16.9326 59.5056 16.9281 59.4811 16.9237 59.4567Z" fill="url(#paint4_linear_10022_718)"/>
<path d="M18.9004 63.9667C17.9537 62.9333 17.2871 61.4467 16.9371 59.54L16.9237 59.47L8.47374 61.42L8.48708 61.49C9.12708 64.8567 10.3804 67.6567 12.1737 69.78L12.2204 69.8367L18.9471 64.02C18.9303 64.0023 18.917 63.9845 18.9004 63.9667Z" fill="url(#paint5_linear_10022_718)"/>
<path d="M43.9337 39.8467C38.8404 47.68 35.7537 52.5967 35.7537 52.5967C28.9704 63.2633 26.6237 65.6533 22.8504 65.6533C22.1083 65.6727 21.3709 65.5314 20.6885 65.2391C20.0062 64.9468 19.3951 64.5105 18.8971 63.96L12.1737 69.7733L12.2204 69.83C14.7004 72.7267 18.1937 74.3333 22.5204 74.3333C29.0637 74.3333 33.7671 71.24 42.1337 56.5667L48.0204 46.1333C46.7144 44.001 45.3539 41.9047 43.9337 39.8467Z" fill="#0082FB"/>
<path d="M53.0071 27.4867L52.9537 27.54C51.6204 28.9733 50.3337 30.5667 49.0871 32.26C50.3471 33.87 51.6471 35.6733 53.0037 37.6933C54.6037 35.2167 56.0971 33.21 57.5604 31.67L57.6137 31.6167L53.0071 27.4867Z" fill="url(#paint6_linear_10022_718)"/>
<path d="M77.7271 26.71C74.1771 23.11 69.9437 21 65.4171 21C60.6437 21 56.6271 23.6233 53.0071 27.48L52.9537 27.5333L57.5604 31.6667L57.6137 31.61C59.9971 29.12 62.3071 27.8767 64.8671 27.8767C67.6204 27.8767 70.2004 29.1767 72.4337 31.46L72.4837 31.5133L77.7804 26.7633L77.7271 26.71Z" fill="#0082FB"/>
<path d="M87.9937 54.75C87.7937 43.1933 83.7604 32.8633 77.7804 26.7633L77.7271 26.71L72.4337 31.4567L72.4837 31.51C76.9837 36.15 80.0737 44.7767 80.3537 54.7467V54.8233H87.9937V54.75Z" fill="url(#paint7_linear_10022_718)"/>
<path d="M87.9937 54.8333V54.7567H80.3537V54.83C80.3671 55.2967 80.3737 55.77 80.3737 56.2433C80.3737 58.96 79.9704 61.1567 79.1471 62.7433L79.1104 62.8167L84.8037 68.7567L84.8471 68.69C86.9138 65.49 88.0004 61.0467 88.0004 55.6567C88.0004 55.38 88.0004 55.1067 87.9937 54.8333Z" fill="url(#paint8_linear_10022_718)"/>
<path d="M79.1471 62.7333L79.1104 62.8C78.3971 64.14 77.3804 65.0333 76.0537 65.4233L78.6471 73.63C79.1469 73.4611 79.6347 73.2584 80.1071 73.0233C81.9529 72.0902 83.5226 70.6905 84.6604 68.9633L84.8071 68.7467L84.8471 68.68L79.1471 62.7333Z" fill="url(#paint9_linear_10022_718)"/>
<path d="M74.4004 65.6433C73.5271 65.6433 72.7604 65.5133 72.0071 65.1767L69.3471 73.5833C70.8437 74.0933 72.4371 74.3233 74.2138 74.3233C75.8538 74.3233 77.3571 74.08 78.7204 73.6067L76.1204 65.4C75.5637 65.5667 74.9871 65.65 74.4004 65.6433Z" fill="url(#paint10_linear_10022_718)"/>
<path d="M69.0771 62.78L69.0304 62.7233L62.9104 69.1033L62.9637 69.16C65.0871 71.4333 67.1171 72.8433 69.4204 73.6167L72.0771 65.2167C71.1071 64.8 70.1671 64.04 69.0771 62.78Z" fill="url(#paint11_linear_10022_718)"/>
<path d="M69.0304 62.7167C67.1971 60.5767 64.9237 57.01 61.3537 51.25L56.7004 43.4633L56.6637 43.3967L51.2637 51.5233L51.3037 51.59L54.6004 57.15C57.7971 62.5167 60.4004 66.3967 62.9104 69.1L62.9637 69.1533L69.0771 62.7733C69.0614 62.7545 69.0459 62.7356 69.0304 62.7167Z" fill="url(#paint12_linear_10022_718)"/>
<defs>
<linearGradient id="paint0_linear_10022_718" x1="6079.79" y1="4778.28" x2="3973.86" y2="-127.489" gradientUnits="userSpaceOnUse">
<stop offset="0.0006" stop-color="#0867DF"/>
<stop offset="0.4539" stop-color="#0668E1"/>
<stop offset="0.8591" stop-color="#0064E0"/>
</linearGradient>
<linearGradient id="paint1_linear_10022_718" x1="1741.61" y1="4067.61" x2="6044.69" y2="-374.487" gradientUnits="userSpaceOnUse">
<stop offset="0.1323" stop-color="#0064DF"/>
<stop offset="0.9988" stop-color="#0064E0"/>
</linearGradient>
<linearGradient id="paint2_linear_10022_718" x1="3069.06" y1="4774.44" x2="3914.96" y2="681.928" gradientUnits="userSpaceOnUse">
<stop offset="0.0147" stop-color="#0072EC"/>
<stop offset="0.6881" stop-color="#0064DF"/>
</linearGradient>
<linearGradient id="paint3_linear_10022_718" x1="3770.58" y1="4831.13" x2="3953.03" y2="850.33" gradientUnits="userSpaceOnUse">
<stop offset="0.0731" stop-color="#007CF6"/>
<stop offset="0.9943" stop-color="#0072EC"/>
</linearGradient>
<linearGradient id="paint4_linear_10022_718" x1="4180.42" y1="3130.39" x2="4014.09" y2="1966.15" gradientUnits="userSpaceOnUse">
<stop offset="0.0731" stop-color="#007FF9"/>
<stop offset="1" stop-color="#007CF6"/>
</linearGradient>
<linearGradient id="paint5_linear_10022_718" x1="3023.14" y1="687.773" x2="3984.37" y2="3724.64" gradientUnits="userSpaceOnUse">
<stop offset="0.0731" stop-color="#007FF9"/>
<stop offset="1" stop-color="#0082FB"/>
</linearGradient>
<linearGradient id="paint6_linear_10022_718" x1="2792.65" y1="3693.48" x2="3940.22" y2="834.365" gradientUnits="userSpaceOnUse">
<stop offset="0.2799" stop-color="#007FF8"/>
<stop offset="0.9141" stop-color="#0082FB"/>
</linearGradient>
<linearGradient id="paint7_linear_10022_718" x1="3508.98" y1="353.533" x2="4007.15" y2="5335.97" gradientUnits="userSpaceOnUse">
<stop stop-color="#0082FB"/>
<stop offset="0.9995" stop-color="#0081FA"/>
</linearGradient>
<linearGradient id="paint8_linear_10022_718" x1="4812.42" y1="269.587" x2="4057.64" y2="3884.51" gradientUnits="userSpaceOnUse">
<stop offset="0.0619" stop-color="#0081FA"/>
<stop offset="1" stop-color="#0080F9"/>
</linearGradient>
<linearGradient id="paint9_linear_10022_718" x1="2430.57" y1="3184.73" x2="4049.54" y2="1128.68" gradientUnits="userSpaceOnUse">
<stop stop-color="#027AF3"/>
<stop offset="1" stop-color="#0080F9"/>
</linearGradient>
<linearGradient id="paint10_linear_10022_718" x1="1642.65" y1="2687.72" x2="6576.99" y2="2687.72" gradientUnits="userSpaceOnUse">
<stop stop-color="#0377EF"/>
<stop offset="0.9994" stop-color="#0279F1"/>
</linearGradient>
<linearGradient id="paint11_linear_10022_718" x1="3232.26" y1="1903.56" x2="5050.08" y2="3816.47" gradientUnits="userSpaceOnUse">
<stop offset="0.0019" stop-color="#0471E9"/>
<stop offset="1" stop-color="#0377EF"/>
</linearGradient>
<linearGradient id="paint12_linear_10022_718" x1="625.815" y1="551.292" x2="1689.06" y2="1892.21" gradientUnits="userSpaceOnUse">
<stop offset="0.2765" stop-color="#0867DF"/>
<stop offset="1" stop-color="#0471E9"/>
</linearGradient>
</defs>
</svg>
