<svg width="96" height="96" viewBox="0 0 96 96" fill="none" xmlns="http://www.w3.org/2000/svg">
<path d="M38.4604 25.9729C39.659 27.0391 40.8804 28.2601 42.0755 29.5453L25.5669 41.1925V35.0671L38.4604 25.9729Z" fill="#E50204"/>
<path d="M42.5933 59.7755L35.5118 59.3211L34.1348 59.622L53.5925 45.8978L55.8462 50.4278L42.5933 59.7755Z" fill="#750886"/>
<path d="M34.1345 59.6223L26.9307 61.1967L18.293 64.72L18.3278 64.6518L51.3386 41.3682L53.5923 45.8981L34.1345 59.6223Z" fill="#004DFF"/>
<path d="M18.3276 64.6516L22.5549 56.3662L22.8382 55.3506L48.4978 37.252C49.5281 38.6116 50.3953 39.8194 51.0253 40.7387L51.3384 41.368L18.3276 64.6516Z" fill="#018126"/>
<path d="M22.8384 55.3505L24.9636 47.7319L45.3866 33.3269C46.5191 34.6915 47.574 36.0328 48.4979 37.252L22.8384 55.3505Z" fill="#FDEF03"/>
<path d="M25.5667 41.187V45.5692L24.9634 47.7321L45.3865 33.327C44.3348 32.0599 43.2163 30.7725 42.0739 29.5439L25.5667 41.187Z" fill="#FF8B01"/>
<path d="M61.2576 63.5942C60.7436 60.0785 59.7042 56.6615 58.4737 53.3373C56.6193 48.4835 54.2314 43.8407 51.3994 39.488C48.6315 35.219 45.4779 31.1943 41.927 27.5525C38.2742 23.7742 34.2277 20.3859 29.9271 17.3713C25.9618 14.6251 21.7905 12.1506 17.3719 10.2024C17.0308 10.0384 16.6302 9.91001 16.265 10.0809C15.6297 10.2838 15.2371 11.0509 15.49 11.6782C15.6629 12.1196 15.9433 12.5083 16.1631 12.9292C18.2694 16.7945 20.0814 20.8273 21.5123 24.9943C22.9295 29.1635 23.9757 33.4922 24.1955 37.9033C24.3214 41.0372 24.0559 44.1744 23.6392 47.2784C23.25 49.6164 22.7303 51.9361 22.0068 54.195C20.6744 58.198 18.812 62.0944 16.0509 65.313C15.6675 65.7946 15.0264 66.2063 15.0837 66.9C15.0928 67.7783 16.1517 68.4354 16.9209 67.9687C19.6831 66.1799 22.6811 64.7798 25.7638 63.6446C29.5367 62.3145 33.4871 61.4052 37.4935 61.2481C39.7532 61.1507 42.0197 61.2447 44.2713 61.4671C49.5278 62.084 54.7145 63.374 59.6115 65.3944C60.2033 65.6731 60.9485 65.3394 61.2187 64.7626C61.3801 64.39 61.3091 63.9783 61.2599 63.5907L61.2576 63.5942ZM52.3049 60.3824C50.6038 59.9157 48.8605 59.6313 47.1285 59.3091C44.1088 58.8849 41.0559 58.6051 38.0007 58.706C32.8506 58.8665 27.7636 60.0694 23.0016 62.0175C22.2587 62.2618 21.5947 62.6975 20.8427 62.9188C23.8006 57.9068 25.5405 52.232 26.272 46.4734C26.5296 44.6113 26.6944 42.7353 26.6978 40.8537C26.7803 39.957 26.786 39.0557 26.699 38.159C26.7024 35.9598 26.3098 33.7868 25.9355 31.6265C24.8159 26.1765 22.8768 20.9248 20.5073 15.9024C20.22 15.3199 19.9178 14.7443 19.6705 14.1446C19.92 14.2375 20.1673 14.3395 20.4031 14.468C30.283 19.808 39.1614 27.1225 45.9518 36.1042C50.6943 42.3707 54.5702 49.3424 57.0314 56.8243C57.5968 58.5993 58.1097 60.3939 58.4519 62.2262C56.4235 61.5474 54.3928 60.856 52.3037 60.3835L52.3049 60.3824Z" fill="black"/>
<path d="M78.5645 62.5899C76.7685 57.7121 74.6038 52.9695 72.0946 48.4184C69.6988 44.1208 66.9778 39.9733 63.6719 36.3155C61.8747 34.3123 59.9779 32.4019 58.064 30.5122C54.813 27.3991 51.3892 24.4235 47.5625 22.0384C45.7515 20.9342 43.8559 19.9102 41.7909 19.3816C41.2437 19.2704 40.6645 19.0778 40.1104 19.2372C39.1741 19.486 38.9314 20.8689 39.7212 21.4238C41.586 22.6416 43.3534 24.0073 45.0178 25.4853C48.5263 28.5457 51.6033 32.1072 54.0506 36.0735C58.9683 43.9155 62.6875 52.4776 65.3729 61.3286C65.5961 62.0006 65.5916 62.8353 66.1971 63.3078C66.5382 63.5944 67.0121 63.5417 67.4208 63.474C68.617 63.2309 69.835 63.052 71.0598 63.0841C71.9859 63.1059 72.8639 63.4408 73.7442 63.6976C74.5912 63.9969 75.4314 64.3134 76.2614 64.6574C76.7776 64.8638 77.2813 65.2135 77.8617 65.1596C78.4123 65.1057 78.8804 64.6344 78.948 64.0863C79.0121 63.5566 78.7351 63.0738 78.5679 62.5899H78.5645ZM72.5342 60.7278C70.9843 60.4239 69.3874 60.589 67.8398 60.8184C65.4359 52.762 62.1414 44.9658 57.9575 37.6719C56.9033 35.8832 55.8192 34.1093 54.639 32.3985C53.2986 30.4859 51.8036 28.6856 50.2102 26.9805C54.125 30.0272 57.6565 33.536 61.0333 37.1628C64.282 40.5948 66.9652 44.5232 69.3141 48.6133C71.4296 52.3136 73.2725 56.1652 74.9003 60.1017C75.1086 60.589 75.309 61.0832 75.4658 61.5912C74.4802 61.3309 73.5312 60.9456 72.5342 60.7266V60.7278Z" fill="black"/>
<path d="M92.6559 83.0034C92.2048 82.476 91.4642 82.6308 90.8678 82.4633C89.5846 82.1331 88.599 81.1894 87.6237 80.3466C86.3806 79.2378 85.0802 78.0934 83.4639 77.5809C81.8808 77.011 80.0893 77.0557 78.5302 77.6898C76.7399 78.364 75.3525 79.724 73.8781 80.8901C72.8788 81.6893 71.7226 82.39 70.42 82.4874C69.2615 82.562 68.0275 82.2959 67.1141 81.5483C68.3881 80.9635 69.6393 80.3363 70.8733 79.6758C73.83 78.0579 76.8131 76.4698 79.5902 74.5514C82.1189 72.8372 84.5536 70.9865 86.9518 69.0933C87.2632 68.8434 87.6203 68.59 87.729 68.1817C87.982 67.3928 87.2689 66.4778 86.4367 66.5764C82.761 66.7725 79.0888 67.0844 75.4143 67.2839C71.3987 67.5144 67.3865 67.8297 63.372 68.0671C59.3976 68.2723 55.4301 68.6163 51.4568 68.8285C47.4858 69.0578 43.5183 69.3754 39.5484 69.5944C35.6164 69.8203 31.69 70.146 27.7557 70.3501C23.9221 70.6023 20.0873 70.8592 16.2548 71.1126C14.2814 71.2273 12.3033 71.3236 10.3344 71.4979C9.5732 71.53 9.01229 72.3957 9.271 73.1055C9.42553 73.5229 9.66249 73.9024 9.86396 74.2992C10.5004 75.455 11.0899 76.6372 11.7241 77.7953C10.426 78.6243 9.16569 79.5084 7.90308 80.3902C6.87971 81.053 5.88268 81.7994 4.71852 82.1939C4.24919 82.2753 3.70659 82.2455 3.36661 82.6457C2.71184 83.2339 2.97741 84.4413 3.81991 84.6947C4.62693 84.9183 5.46715 84.6133 6.21922 84.3255C8.71125 83.1387 10.7992 81.2834 13.1676 79.8868C13.8086 79.5417 14.4554 79.1266 15.1994 79.0704C15.9904 79.1449 16.6154 79.6953 17.2416 80.1299C18.9815 81.4841 20.6173 83.0206 22.6263 83.9735C24.3559 84.8232 26.3912 85.1351 28.2651 84.6053C30.4881 84.0469 32.2063 82.4461 33.9989 81.1149C34.846 80.4934 35.7732 79.8914 36.8401 79.7675C37.8142 79.6231 38.8181 79.8845 39.6423 80.4085C41.2827 81.4268 42.5636 82.9312 44.2555 83.8726C45.9531 84.8931 48.0799 85.2589 49.9916 84.6729C51.7327 84.2143 53.1498 83.0309 54.4811 81.874C55.5159 81.0369 56.5679 80.0943 57.9129 79.8272C59.2877 79.5359 60.7529 79.8776 61.885 80.7055C63.783 82.0207 65.3466 83.9081 67.6086 84.6305C69.5672 85.3449 71.8016 85.0995 73.6137 84.0916C75.056 83.336 76.2213 82.1744 77.5046 81.194C78.3333 80.5679 79.2376 79.9625 80.285 79.7985C81.4767 79.5772 82.7473 79.8306 83.7661 80.4877C85.2931 81.4463 86.4561 82.8727 87.9649 83.8554C89.1245 84.6454 90.5221 85.1832 91.9427 85.0926C92.8756 84.9871 93.3805 83.6582 92.6547 83.0057L92.6559 83.0034ZM64.7983 79.6999C64.3965 79.4855 64.0714 79.1552 63.7017 78.8961C62.3155 77.871 60.6305 77.1566 58.8859 77.1933C57.4711 77.1887 56.07 77.6485 54.8863 78.4157C53.2872 79.3846 52.0578 80.858 50.43 81.7857C49.283 82.484 47.8292 82.5746 46.562 82.1916C44.481 81.4142 43.0695 79.591 41.2266 78.4294C39.9056 77.5602 38.3064 77.0397 36.7164 77.2231C35.1264 77.4077 33.6715 78.1806 32.4192 79.1506C30.8681 80.2709 29.4396 81.6997 27.5393 82.2053C25.8097 82.656 24.0194 82.023 22.5839 81.061C20.8245 79.9533 19.373 78.4306 17.6125 77.324C16.5605 76.6647 15.2418 76.3012 14.0318 76.7243C13.4766 75.807 13.0073 74.8392 12.5151 73.8875C16.5651 73.5802 20.6173 73.3325 24.6707 73.0986C28.731 72.7982 32.7924 72.5539 36.8538 72.3097C40.0968 72.0735 43.3408 71.8614 46.5861 71.6836C51.411 71.335 56.2382 71.0518 61.0666 70.7434C65.468 70.4051 69.8762 70.2159 74.2788 69.8776C76.2831 69.7699 78.2795 69.5761 80.2862 69.513C80.9547 69.4511 81.6266 69.3823 82.2986 69.4155C82.1131 69.6219 81.9071 69.81 81.6839 69.9751C79.7196 71.4073 77.7495 72.8372 75.6673 74.0939C72.6705 75.8403 69.6542 77.5625 66.52 79.0486C65.9545 79.286 65.3959 79.5612 64.7995 79.7022L64.7983 79.6999Z" fill="black"/>
</svg>
