<svg width="96" height="96" viewBox="0 0 96 96" fill="none" xmlns="http://www.w3.org/2000/svg">
<path d="M61.9035 15.5002C65.6605 15.5002 68.7058 18.513 68.7058 22.2277V62.856C68.7318 63.4785 68.9985 64.0665 69.4495 64.4963C69.9005 64.9261 70.5007 65.1642 71.1237 65.1602C71.7462 65.1633 72.3456 64.9249 72.7959 64.4952C73.2463 64.0655 73.5124 63.4779 73.5385 62.856V38.572C73.5432 37.6928 73.721 36.8231 74.0618 36.0126C74.4026 35.2021 74.8997 34.4667 75.5247 33.8484C76.1497 33.23 76.8904 32.7408 77.7044 32.4087C78.5185 32.0765 79.39 31.908 80.2693 31.9127C81.1487 31.908 82.0205 32.0767 82.8348 32.409C83.6491 32.7413 84.3899 33.2308 85.015 33.8495C85.64 34.4682 86.137 35.204 86.4776 36.0149C86.8182 36.8257 86.9957 37.6958 87 38.5752V59.8985C86.9966 60.4573 86.7715 60.992 86.3742 61.385C85.9769 61.778 85.4398 61.9973 84.881 61.9947C84.604 61.9964 84.3294 61.9436 84.0728 61.8392C83.8163 61.7347 83.5828 61.5808 83.3857 61.3862C83.1886 61.1915 83.0318 60.9599 82.9243 60.7047C82.8167 60.4494 82.7605 60.1755 82.7587 59.8985V38.5752C82.757 38.25 82.6913 37.9283 82.5653 37.6285C82.4392 37.3287 82.2554 37.0566 82.0242 36.8279C81.793 36.5991 81.5191 36.4181 81.218 36.2953C80.9168 36.1724 80.5945 36.11 80.2693 36.1117C79.944 36.11 79.6217 36.1724 79.3205 36.2953C79.0194 36.4181 78.7455 36.5991 78.5143 36.8279C78.2831 37.0566 78.0993 37.3287 77.9732 37.6285C77.8472 37.9283 77.7815 38.25 77.7798 38.5752V62.8592C77.7751 63.7286 77.5992 64.5886 77.2622 65.39C76.9251 66.1914 76.4335 66.9186 75.8155 67.53C75.1974 68.1414 74.465 68.6252 73.6599 68.9535C72.8549 69.2819 71.9931 69.4484 71.1237 69.4437C70.2544 69.4484 69.3926 69.2819 68.5876 68.9535C67.7825 68.6252 67.0501 68.1414 66.432 67.53C65.814 66.9186 65.3224 66.1914 64.9853 65.39C64.6483 64.5886 64.4724 63.7286 64.4677 62.8592V22.2342C64.4408 21.5741 64.1589 20.9502 63.6812 20.4937C63.2035 20.0373 62.5674 19.7839 61.9067 19.787C61.246 19.783 60.6096 20.0356 60.1313 20.4914C59.653 20.9473 59.3703 21.5709 59.3425 22.231L59.3393 73.919C59.3289 75.6742 58.622 77.3535 57.3738 78.5877C56.1257 79.8218 54.4385 80.5097 52.6832 80.5002C51.8139 80.5049 50.9521 80.3384 50.1471 80.01C49.342 79.6816 48.6096 79.1979 47.9915 78.5865C47.3735 77.9751 46.8819 77.2479 46.5448 76.4465C46.2078 75.6451 46.0319 74.7851 46.0272 73.9157V67.6302C46.0272 66.4732 46.9763 65.534 48.1463 65.534C49.3163 65.534 50.2652 66.4732 50.2652 67.6302V73.9157C50.2652 74.7705 50.7268 75.5602 51.4743 75.9892C52.2218 76.415 53.1447 76.415 53.8922 75.9892C54.259 75.7813 54.5642 75.4799 54.7765 75.1156C54.9889 74.7514 55.101 74.3374 55.1013 73.9157V22.2277C55.1013 18.513 58.1465 15.5002 61.9035 15.5002ZM43.463 15.5002C47.22 15.5002 50.2652 18.513 50.2652 22.2277V59.6775C50.264 59.9543 50.2081 60.2282 50.1009 60.4834C49.9937 60.7387 49.8372 60.9703 49.6404 61.165C49.4436 61.3597 49.2103 61.5136 48.9539 61.6181C48.6975 61.7226 48.4231 61.7755 48.1463 61.7737C47.8694 61.7755 47.595 61.7226 47.3386 61.6181C47.0822 61.5136 46.8489 61.3597 46.6521 61.165C46.4553 60.9703 46.2988 60.7387 46.1916 60.4834C46.0844 60.2282 46.0285 59.9543 46.0272 59.6775V22.2277C46.023 21.5517 45.7505 20.9049 45.2697 20.4296C44.7889 19.9543 44.1391 19.6893 43.463 19.6927C42.7869 19.6893 42.1371 19.9543 41.6563 20.4296C41.1755 20.9049 40.903 21.5517 40.8987 22.2277V67.77C40.8884 69.5445 40.1741 71.2423 38.9126 72.4904C37.6511 73.7384 35.9458 74.4346 34.1712 74.426C32.3962 74.4355 30.69 73.7397 29.4278 72.4915C28.1656 71.2434 27.4508 69.5451 27.4405 67.77V38.5752C27.4388 38.25 27.3731 37.9283 27.247 37.6285C27.121 37.3287 26.9371 37.0566 26.706 36.8279C26.4748 36.5991 26.2008 36.4181 25.8997 36.2953C25.5986 36.1724 25.2762 36.11 24.951 36.1117C24.6258 36.11 24.3034 36.1724 24.0023 36.2953C23.7012 36.4181 23.4272 36.5991 23.196 36.8279C22.9649 37.0566 22.781 37.3287 22.655 37.6285C22.5289 37.9283 22.4632 38.25 22.4615 38.5752V50.9252C22.4568 51.8044 22.279 52.6741 21.9382 53.4846C21.5974 54.2951 21.1003 55.0305 20.4753 55.6489C19.8503 56.2672 19.1096 56.7565 18.2956 57.0886C17.4815 57.4207 16.61 57.5892 15.7308 57.5845C14.8515 57.5892 13.98 57.4207 13.1659 57.0886C12.3519 56.7565 11.6112 56.2672 10.9862 55.6489C10.3612 55.0305 9.86407 54.2951 9.52328 53.4846C9.18249 52.6741 9.00468 51.8044 9 50.9252L9 46.4467C9 45.2865 9.949 44.3472 11.119 44.3472C12.289 44.3472 13.2412 45.2897 13.2412 46.4467V50.9252C13.2412 52.2837 14.356 53.3855 15.7308 53.3855C17.1055 53.3855 18.2202 52.2837 18.2202 50.9252V38.572C18.2306 36.7975 18.9449 35.0997 20.2064 33.8516C21.4679 32.6035 23.1732 31.9073 24.9478 31.916C26.7228 31.9065 28.429 32.6023 29.6912 33.8505C30.9534 35.0986 31.6682 36.7969 31.6785 38.572V67.77C31.6785 69.1317 32.7932 70.2335 34.1712 70.2335C35.546 70.2335 36.6607 69.1317 36.6607 67.77V22.2277C36.6607 18.513 39.706 15.5002 43.463 15.5002Z" fill="black"/>
</svg>
