<svg width="96" height="96" viewBox="0 0 96 96" fill="none" xmlns="http://www.w3.org/2000/svg">
<path fill-rule="evenodd" clip-rule="evenodd" d="M57.7374 12.1641L17.8081 15.1063C14.5869 15.3829 13.4658 17.4855 13.4658 20.0018V63.6769C13.4658 65.6399 14.1635 67.3166 15.8474 69.5563L25.2344 81.7363C26.774 83.6969 28.1765 84.1179 31.1211 83.9735L77.4904 81.1757C81.4117 80.8967 82.5351 79.0756 82.5351 75.9963V26.8628C82.5351 25.2703 81.9049 24.8108 80.0477 23.4564C79.9418 23.3787 79.8359 23.3009 79.7301 23.223L66.9849 14.2643C63.9032 12.027 62.6378 11.7431 57.7374 12.1641ZM32.1723 26.0569C28.3858 26.3119 27.527 26.3697 25.3763 24.6231L19.9082 20.2833C19.3501 19.7228 19.6316 19.0227 21.0317 18.8856L59.419 16.0854C62.6402 15.8039 64.3218 16.9274 65.5824 17.9041L72.1667 22.6649C72.4457 22.8044 73.1458 23.644 72.3062 23.644L32.6607 26.0256L32.1723 26.0569ZM27.7555 75.5753V33.8609C27.7555 32.0422 28.3161 31.2027 29.9976 31.0607L75.5274 28.4024C77.0719 28.2629 77.7719 29.2444 77.7719 31.0607V72.4937C77.7719 74.3172 77.4904 75.8568 74.9669 75.9963L31.4001 78.5175C28.8742 78.657 27.7555 77.8198 27.7555 75.5753ZM70.769 36.0982C71.048 37.3612 70.769 38.6218 69.5036 38.7637L67.4059 39.1823V69.9749C65.5824 70.9564 63.9008 71.5145 62.5007 71.5145C60.2586 71.5145 59.6981 70.8169 58.0165 68.7167L44.2873 47.1619V68.0191L48.632 68.9982C48.632 68.9982 48.632 71.5169 45.1245 71.5169L35.4609 72.0775C35.1794 71.5169 35.4609 70.1168 36.4424 69.8378L38.9636 69.1401V41.5591L35.4609 41.2776C35.1818 40.017 35.8795 38.1984 37.8425 38.0588L48.211 37.3612L62.5007 59.1975V39.8799L58.8585 39.4613C58.577 37.9193 59.6981 36.7983 61.0982 36.6611L70.769 36.0982Z" fill="black"/>
</svg>
