<svg width="96" height="96" viewBox="0 0 96 96" fill="none" xmlns="http://www.w3.org/2000/svg">
<path fill-rule="evenodd" clip-rule="evenodd" d="M23.3332 8.38696L46.1628 29.6814V9.00035H49.6981V29.6809L72.5274 8.38703V31.9797L82.0396 31.9798V65.954H72.5274V87.1553L49.6981 66.7992V87.0003H46.1628V66.7991L23.3333 87.1552V65.9541H13.9604V31.9798L23.3332 31.9797V8.38696ZM43.3964 35.5148L17.4957 35.515V62.4188H23.3292L23.3337 53.9632L43.3964 35.5148ZM26.8685 55.5155V79.2665L46.1628 62.0626L46.1626 37.7739L26.8685 55.5155ZM49.6981 62.0626V37.7741L68.9921 55.5155V79.2664L49.6981 62.0626ZM72.5274 62.4188H78.5043V35.515L52.4641 35.5148L72.5274 53.9636V62.4188ZM52.4168 31.9795L68.9921 16.519V31.9795L52.4168 31.9795ZM43.4436 31.9795L26.8685 16.519V31.9795H43.4436Z" fill="black"/>
</svg>
