<svg width="96" height="96" viewBox="0 0 96 96" fill="none" xmlns="http://www.w3.org/2000/svg">
<path d="M77.8167 26.5038C77.345 26.0336 76.7839 25.6634 76.1657 25.4153C75.5476 25.1672 74.8861 25.0462 74.2204 25.0598H74.1929C70.2736 25.0598 67.1311 21.8761 67.1311 17.9635C67.1411 17.3111 67.022 16.6631 66.7807 16.0568C66.5394 15.4505 66.1806 14.8979 65.7249 14.4308C65.2693 13.9636 64.7259 13.5912 64.1258 13.3348C63.5257 13.0785 62.8809 12.9433 62.2284 12.937H22.3875C21.7356 12.9433 21.0913 13.0783 20.4917 13.3342C19.8921 13.5901 19.3489 13.9619 18.8934 14.4283C18.4378 14.8947 18.0789 15.4465 17.8372 16.052C17.5954 16.6575 17.4757 17.3048 17.4848 17.9567C17.4848 21.8761 14.308 25.046 10.3885 25.046V25.0529C9.72855 25.0401 9.07269 25.1594 8.4595 25.4037C7.84631 25.6481 7.28817 26.0125 6.81792 26.4757C6.34766 26.9389 5.97478 27.4915 5.7212 28.1009C5.46763 28.7104 5.33848 29.3644 5.34136 30.0244V42.7661C5.33938 43.4262 5.46942 44.08 5.72383 44.6891C5.97824 45.2982 6.35189 45.8502 6.82278 46.3128C7.29369 46.7754 7.85233 47.1391 8.46586 47.3826C9.0794 47.6261 9.73544 47.7445 10.3954 47.7307C12.2714 47.7307 14.0708 48.475 15.3986 49.8002C16.7265 51.1255 17.4743 52.9234 17.4779 54.7995V67.7405C17.4779 69.3908 19.5614 70.1266 20.5928 68.8407L27.7785 59.8604H62.2284C62.8803 59.8541 63.5245 59.7191 64.1241 59.4632C64.7238 59.2073 65.267 58.8355 65.7225 58.369C66.178 57.9026 66.5369 57.3508 66.7787 56.7454C67.0204 56.1398 67.1402 55.4926 67.1311 54.8407V54.8338C67.1311 50.9144 70.2942 47.7376 74.2136 47.7376H74.2204C74.8806 47.7523 75.5372 47.6346 76.1513 47.3914C76.7653 47.1482 77.3244 46.7845 77.7954 46.3218C78.2664 45.8591 78.6398 45.3066 78.8942 44.6971C79.1479 44.0875 79.2772 43.4333 79.2745 42.7729V30.0244C79.2745 28.7523 78.7931 27.4802 77.8167 26.5038ZM69.3453 42.9036C69.3253 44.7695 68.5706 46.5523 67.2447 47.8653C65.9188 49.1783 64.1288 49.9156 62.2628 49.9173H22.3463C20.4803 49.9156 18.6902 49.1783 17.3643 47.8653C16.0384 46.5523 15.2836 44.7695 15.2638 42.9036V29.8869C15.2836 28.021 16.0384 26.2382 17.3643 24.9252C18.6902 23.6122 20.4803 22.8749 22.3463 22.8732V22.8594H22.3807V22.8663H62.249C66.1409 22.8663 69.2971 26.0018 69.3384 29.88V42.9036H69.3453Z" fill="black"/>
<path d="M31.2855 28.9312C28.535 28.9312 26.314 31.159 26.314 33.9095V38.881C26.2891 39.5499 26.3994 40.217 26.6382 40.8422C26.877 41.4675 27.2395 42.0383 27.7039 42.5203C28.1683 43.0022 28.7251 43.3857 29.3412 43.6476C29.9572 43.9094 30.6196 44.0444 31.2889 44.0444C31.9583 44.0444 32.6208 43.9094 33.2368 43.6476C33.8527 43.3857 34.4096 43.0022 34.874 42.5203C35.3384 42.0383 35.7009 41.4675 35.9397 40.8422C36.1785 40.217 36.2888 39.5499 36.2639 38.881V33.9095C36.2639 31.159 34.036 28.9312 31.2855 28.9312ZM53.3238 28.9312C50.5733 28.9312 48.3454 31.159 48.3454 33.9095V38.881C48.3454 40.2014 48.8699 41.4677 49.8036 42.4013C50.7372 43.3349 52.0035 43.8594 53.3238 43.8594C54.6442 43.8594 55.9104 43.3349 56.8441 42.4013C57.7777 41.4677 58.3022 40.2014 58.3022 38.881V33.9095C58.3022 31.159 56.0743 28.9312 53.3238 28.9312Z" fill="black"/>
<path d="M30.8655 81.6857L37.838 72.9666H72.2879C72.9404 72.9613 73.5854 72.827 74.1858 72.5714C74.7861 72.3159 75.33 71.9442 75.7866 71.4777C76.2425 71.0112 76.6021 70.4591 76.8441 69.8532C77.0869 69.2473 77.2065 68.5995 77.1976 67.947C77.1907 64.0413 80.3469 60.8645 84.2526 60.8507H84.287C84.9471 60.8645 85.6038 60.7459 86.2178 60.502C86.8319 60.2581 87.3909 59.8937 87.8619 59.4304C88.3329 58.9671 88.7063 58.4142 88.9607 57.8043C89.2145 57.1944 89.3437 56.5399 89.341 55.8792V43.2957C89.341 42.0993 88.9422 40.9303 88.2133 39.9745L86.8174 38.1592V52.5992C86.8195 53.2593 86.6895 53.9132 86.4351 54.5223C86.1807 55.1313 85.8066 55.6834 85.3356 56.1459C84.8653 56.6086 84.3062 56.9723 83.6929 57.2158C83.0795 57.4593 82.4235 57.5776 81.7634 57.5639H81.7359C79.858 57.5712 78.0599 58.3232 76.7355 59.6549C75.4118 60.9866 74.6706 62.7892 74.674 64.667C74.6829 65.3189 74.5633 65.9661 74.3213 66.5717C74.0798 67.1771 73.7209 67.7289 73.2653 68.1953C72.8098 68.6617 72.2666 69.0336 71.667 69.2895C71.0674 69.5454 70.4231 69.6804 69.7712 69.6867H35.3213L27.73 79.1759C27.3971 79.5917 27.2431 80.1226 27.3018 80.652C27.3604 81.1814 27.627 81.6657 28.0428 81.9985C28.4586 82.3314 28.9896 82.4854 29.5189 82.4269C30.0483 82.3678 30.5327 82.1017 30.8655 81.6857Z" fill="black"/>
<path d="M22.8551 72.4095L30.2815 63.1266H64.7313C65.3833 63.1204 66.0275 62.9854 66.6271 62.7295C67.2268 62.4735 67.7699 62.1017 68.2255 61.6353C68.681 61.1689 69.0399 60.6172 69.2817 60.0117C69.5234 59.4062 69.6432 58.7589 69.6341 58.107C69.6304 56.231 70.3712 54.4302 71.6939 53.0997C73.0166 51.7693 74.8132 51.018 76.689 51.0107H76.7234C77.3835 51.0255 78.0402 50.9077 78.6542 50.6646C79.2683 50.4214 79.8273 50.0577 80.2984 49.5949C80.7694 49.1322 81.1428 48.5797 81.3972 47.9702C81.6509 47.3607 81.7802 46.7064 81.7774 46.0461V31.5923L83.5996 33.9646C84.3319 34.9196 84.728 36.0894 84.7273 37.2927V49.8624C84.7294 50.5219 84.5994 51.1752 84.3457 51.7838C84.0913 52.3924 83.7186 52.9441 83.2483 53.4066C82.7779 53.8691 82.2203 54.233 81.6076 54.4769C80.9949 54.7208 80.3396 54.8399 79.6802 54.827H79.6458C77.7679 54.8361 75.9705 55.5899 74.6482 56.9229C73.3252 58.2559 72.5854 60.0592 72.5909 61.9371C72.5999 62.5889 72.4802 63.2363 72.2385 63.8417C71.9967 64.4472 71.6377 64.999 71.1823 65.4654C70.7267 65.9318 70.1836 66.3036 69.5839 66.5595C68.9843 66.8155 68.34 66.9504 67.6881 66.9567H33.2382L26.527 75.3457C26.3342 75.5868 26.0958 75.7876 25.8255 75.9366C25.5551 76.0855 25.258 76.1798 24.9512 76.214C24.6444 76.2481 24.3339 76.2215 24.0374 76.1356C23.7408 76.0498 23.4641 75.9064 23.223 75.7136C22.9819 75.5208 22.7811 75.2824 22.6321 75.012C22.4832 74.7416 22.3889 74.4446 22.3547 74.1378C22.3206 73.8309 22.3472 73.5204 22.4331 73.2239C22.5189 72.9274 22.6623 72.6506 22.8551 72.4095Z" fill="black"/>
</svg>
