<svg width="96" height="96" viewBox="0 0 96 96" fill="none" xmlns="http://www.w3.org/2000/svg">
<path d="M80.2742 80.502C85.8473 80.502 89.9962 76.4706 89.9962 71.0175C89.9962 65.4443 85.9649 61.533 80.2742 61.533C74.7034 61.533 70.6709 65.4443 70.6709 71.0175C70.6709 76.5882 74.7022 80.502 80.2742 80.502Z" fill="black"/>
<path d="M33.3283 81.2126C48.9953 81.2126 59.0594 73.315 59.0594 60.8326C59.0594 51.1521 52.8176 44.4007 41.7355 41.8529L34.9853 40.1971L33.9994 39.969C28.4216 38.6351 25.6861 37.154 25.6861 32.9373C25.6861 29.2433 28.6163 27.205 33.5837 27.205C49.3753 27.205 55.0993 32.9373 55.0993 32.9373V20.519L54.8962 20.3194C53.7535 19.2599 47.6863 14.3401 33.4566 14.3401C18.4263 14.3401 9 21.9811 9 33.9541C9 43.4623 15.1432 50.0213 26.223 52.7865L33.2012 54.4613C39.0606 55.8628 41.9909 57.3915 41.9909 61.8493C41.9909 65.9258 38.8064 68.2182 33.2012 68.2182C17.0568 68.2194 9 59.5937 9 59.5937V74.4862L9.20668 74.7047C10.3719 75.8617 16.6612 81.2126 33.3283 81.2126Z" fill="black"/>
</svg>
